<?xml version="1.0" standalone="no"?>
<!DOCTYPE svg PUBLIC "-//W3C//DTD SVG 1.1//EN" "http://www.w3.org/Graphics/SVG/1.1/DTD/svg11.dtd">
<svg xmlns="http://www.w3.org/2000/svg">
<metadata>Copyright (C) 2021 by original authors @ fontello.com</metadata>
<defs>
<font id="ezy" horiz-adv-x="1000" >
<font-face font-family="ezy" font-weight="400" font-stretch="normal" units-per-em="1000" ascent="850" descent="-150" />
<missing-glyph horiz-adv-x="1000" />
<glyph glyph-name="fi-rr-angle-small-left" unicode="&#xe802;" d="M442 321a42 42 0 0 0 0 59l191 191a42 42 0 0 1-59 59l-191-192a125 125 0 0 1 0-176l191-191a42 42 0 0 1 59 59z" horiz-adv-x="1000" />

<glyph glyph-name="fi-rr-angle-small-right" unicode="&#xe803;" d="M642 438l-191 192a42 42 0 0 1-59-59l191-191a42 42 0 0 0 0-59l-191-191a42 42 0 0 1 59-59l191 191a125 125 0 0 1 0 176z" horiz-adv-x="1000" />

<glyph glyph-name="fi-rr-angle-small-up" unicode="&#xe804;" d="M750 204a42 42 0 0 0-29 12l-191 192a43 43 0 0 1-59 0l-191-192a42 42 0 0 0-59 59l191 191a128 128 0 0 0 176 0l192-191a42 42 0 0 0-30-71z" horiz-adv-x="1000" />

<glyph glyph-name="fi-rr-angle-up" unicode="&#xe805;" d="M988 171l-341 341a209 209 0 0 1-294 0l-341-341a42 42 0 0 1 59-59l341 341a125 125 0 0 0 176 0l341-341a42 42 0 0 1 59 59z" horiz-adv-x="1000" />

<glyph glyph-name="fi-rr-apps" unicode="&#xe806;" d="M292 850h-125a167 167 0 0 1-167-167v-125a167 167 0 0 1 167-166h125a167 167 0 0 1 166 166v125a167 167 0 0 1-166 167z m83-292a83 83 0 0 0-83-83h-125a83 83 0 0 0-84 83v125a83 83 0 0 0 84 84h125a83 83 0 0 0 83-84z m458 292h-125a167 167 0 0 1-166-167v-125a167 167 0 0 1 166-166h125a167 167 0 0 1 167 166v125a167 167 0 0 1-167 167z m84-292a83 83 0 0 0-84-83h-125a83 83 0 0 0-83 83v125a83 83 0 0 0 83 84h125a83 83 0 0 0 84-84z m-625-250h-125a167 167 0 0 1-167-166v-125a167 167 0 0 1 167-167h125a167 167 0 0 1 166 167v125a167 167 0 0 1-166 166z m83-291a83 83 0 0 0-83-84h-125a83 83 0 0 0-84 84v125a83 83 0 0 0 84 83h125a83 83 0 0 0 83-83z m458 291h-125a167 167 0 0 1-166-166v-125a167 167 0 0 1 166-167h125a167 167 0 0 1 167 167v125a167 167 0 0 1-167 166z m84-291a83 83 0 0 0-84-84h-125a83 83 0 0 0-83 84v125a83 83 0 0 0 83 83h125a83 83 0 0 0 84-83z" horiz-adv-x="1000" />

<glyph glyph-name="fi-rr-apps-add" unicode="&#xe807;" d="M292 850h-125a167 167 0 0 1-167-167v-125a167 167 0 0 1 167-166h125a167 167 0 0 1 166 166v125a167 167 0 0 1-166 167z m83-292a83 83 0 0 0-83-83h-125a83 83 0 0 0-84 83v125a83 83 0 0 0 84 84h125a83 83 0 0 0 83-84z m-83-250h-125a167 167 0 0 1-167-166v-125a167 167 0 0 1 167-167h125a167 167 0 0 1 166 167v125a167 167 0 0 1-166 166z m83-291a83 83 0 0 0-83-84h-125a83 83 0 0 0-84 84v125a83 83 0 0 0 84 83h125a83 83 0 0 0 83-83z m458 291h-125a167 167 0 0 1-166-166v-125a167 167 0 0 1 166-167h125a167 167 0 0 1 167 167v125a167 167 0 0 1-167 166z m84-291a83 83 0 0 0-84-84h-125a83 83 0 0 0-83 84v125a83 83 0 0 0 83 83h125a83 83 0 0 0 84-83z m-334 541h125v-125a42 42 0 0 1 84 0v125h125a42 42 0 0 1 0 84h-125v125a42 42 0 0 1-84 0v-125h-125a42 42 0 0 1 0-84z" horiz-adv-x="1000" />

<glyph glyph-name="fi-rr-add" unicode="&#xe808;" d="M500 850a500 500 0 1 1 500-500 501 501 0 0 1-500 500z m0-917a417 417 0 1 0 417 417 417 417 0 0 0-417-417z m208 417a42 42 0 0 0-41-42h-125v-125a42 42 0 0 0-84 0v125h-125a42 42 0 0 0 0 84h125v125a42 42 0 0 0 84 0v-125h125a42 42 0 0 0 41-42z" horiz-adv-x="1000" />

<glyph glyph-name="fi-rr-align-center" unicode="&#xe809;" d="M42 600h916a42 42 0 0 1 0 83h-916a42 42 0 0 1 0-83z m166-125a42 42 0 0 1 0-83h584a42 42 0 0 1 0 83z m584-417h-584a42 42 0 0 1 0-83h584a42 42 0 0 1 0 83z m166 209h-916a42 42 0 0 1 0-84h916a42 42 0 0 1 0 84z" horiz-adv-x="1000" />

<glyph glyph-name="fi-rr-alarm-clock" unicode="&#xe80a;" d="M542 765v43a42 42 0 0 1-84 0v-43a458 458 0 0 1-305-756 126 126 0 0 1-70-117 42 42 0 0 1 84 0 50 50 0 0 0 46 51 39 39 0 0 1 8 2 455 455 0 0 1 558 0 43 43 0 0 1 8-2 50 50 0 0 0 46-51 42 42 0 0 1 84 0 126 126 0 0 1-70 117 458 458 0 0 1-305 756z m-417-457a375 375 0 1 0 375-375 376 376 0 0 0-375 375z m676 542a42 42 0 0 1 0-83 108 108 0 0 0 116-104 42 42 0 0 1 83 0 192 192 0 0 1-199 187z m-718-187a108 108 0 0 0 116 104 42 42 0 0 1 0 83 192 192 0 0 1-199-187 42 42 0 0 1 83 0z m459-296v191a42 42 0 0 1-84 0v-208a42 42 0 0 1 13-29l125-125a42 42 0 0 1 59 59z" horiz-adv-x="1000" />

<glyph glyph-name="fi-rr-align-justify" unicode="&#xe80b;" d="M42 600h916a42 42 0 0 1 0 83h-916a42 42 0 0 1 0-83z m916-125h-916a42 42 0 0 1 0-83h916a42 42 0 0 1 0 83z m0-417h-916a42 42 0 0 1 0-83h916a42 42 0 0 1 0 83z m0 209h-916a42 42 0 0 1 0-84h916a42 42 0 0 1 0 84z" horiz-adv-x="1000" />

<glyph glyph-name="fi-rr-align-left" unicode="&#xe80c;" d="M42 600h916a42 42 0 0 1 0 83h-916a42 42 0 0 1 0-83z m0-208h583a42 42 0 0 1 0 83h-583a42 42 0 0 1 0-83z m583-334h-583a42 42 0 0 1 0-83h583a42 42 0 0 1 0 83z m333 209h-916a42 42 0 0 1 0-84h916a42 42 0 0 1 0 84z" horiz-adv-x="1000" />

<glyph glyph-name="fi-rr-align-right" unicode="&#xe80d;" d="M42 600h916a42 42 0 0 1 0 83h-916a42 42 0 0 1 0-83z m916-125h-583a42 42 0 0 1 0-83h583a42 42 0 0 1 0 83z m0-417h-583a42 42 0 0 1 0-83h583a42 42 0 0 1 0 83z m0 209h-916a42 42 0 0 1 0-84h916a42 42 0 0 1 0 84z" horiz-adv-x="1000" />

<glyph glyph-name="fi-rr-ambulance" unicode="&#xe80e;" d="M961 364l-76 171a250 250 0 0 1-229 148h-56l-27 110a75 75 0 0 1-145 0l-28-110h-192a209 209 0 0 1-208-208v-333a125 125 0 0 1 86-119 142 142 0 0 1-3-27 146 146 0 0 1 292 0 144 144 0 0 1-2 21h254a144 144 0 0 1-2-21 146 146 0 0 1 292 0 142 142 0 0 1-3 27 125 125 0 0 1 86 119v36a455 455 0 0 1-39 186z m-152 137l48-109h-149a42 42 0 0 0-41 41v166a167 167 0 0 0 142-98z m-517-505a63 63 0 0 0-125 0 59 59 0 0 0 4 21h117a59 59 0 0 0 4-21z m479-63a63 63 0 0 0-63 63 59 59 0 0 0 4 21h118a59 59 0 0 0 3-21 63 63 0 0 0-62-63z m146 209a42 42 0 0 0-42-42h-750a42 42 0 0 0-42 42v333a125 125 0 0 0 125 125h375v-167a125 125 0 0 1 125-125h185a372 372 0 0 0 24-130z m-459 208a42 42 0 0 0-41-42h-42v-41a42 42 0 0 0-83 0v41h-42a42 42 0 0 0 0 84h42v41a42 42 0 0 0 83 0v-41h42a42 42 0 0 0 41-42z" horiz-adv-x="1000" />

<glyph glyph-name="fi-rr-angle-double-left" unicode="&#xe80f;" d="M500-150a42 42 0 0 0-29 12l-341 341a208 208 0 0 0 0 294l341 341a42 42 0 0 0 59-59l-341-341a125 125 0 0 1 0-176l341-341a42 42 0 0 0-30-71z m417 0a42 42 0 0 0-30 12l-399 400a125 125 0 0 0 0 176l399 400a42 42 0 0 0 59-59l-399-399a42 42 0 0 1 0-59l399-400a42 42 0 0 0-29-71z" horiz-adv-x="1000" />

<glyph glyph-name="fi-rr-angle-double-right" unicode="&#xe810;" d="M493-150a42 42 0 0 0-30 71l341 341a125 125 0 0 1 0 176l-341 341a42 42 0 1 0 59 59l341-341a208 208 0 0 0 0-294l-341-341a42 42 0 0 0-29-12z m-417 0a42 42 0 0 0-29 71l399 400a42 42 0 0 1 0 59l-399 399a42 42 0 0 0 59 59l399-400a125 125 0 0 0 0-176l-399-400a42 42 0 0 0-30-12z" horiz-adv-x="1000" />

<glyph glyph-name="fi-rr-angle-double-small-left" unicode="&#xe811;" d="M437 58a42 42 0 0 0-30 13l-191 191a125 125 0 0 0 0 176l191 192a42 42 0 0 0 59-59l-191-191a42 42 0 0 1 0-59l191-191a42 42 0 0 0-29-72z m291 0a42 42 0 0 0-29 13l-250 250a42 42 0 0 0 0 59l250 250a42 42 0 1 0 59-59l-220-221 220-220a42 42 0 0 0-30-72z" horiz-adv-x="1000" />

<glyph glyph-name="fi-rr-angle-double-small-right" unicode="&#xe812;" d="M546 58a42 42 0 0 0-30 72l191 191a42 42 0 0 1 0 59l-190 191a42 42 0 0 0 59 59l191-192a125 125 0 0 0 0-176l-191-191a42 42 0 0 0-30-13z m-292 0a42 42 0 0 0-29 72l220 220-220 221a42 42 0 0 0 59 59l250-250a42 42 0 0 0 0-59l-250-250a42 42 0 0 0-30-13z" horiz-adv-x="1000" />

<glyph glyph-name="fi-rr-angle-down" unicode="&#xe813;" d="M500 135a208 208 0 0 0-147 61l-341 340a42 42 0 0 0 59 59l341-340a125 125 0 0 1 176 0l341 340a42 42 0 1 0 59-59l-341-340a208 208 0 0 0-147-61z" horiz-adv-x="1000" />

<glyph glyph-name="fi-rr-bell-school" unicode="&#xe816;" d="M417 517a83 83 0 1 0-84-84 83 83 0 0 0 84 84z m583-84a595 595 0 0 0-478-581 123 123 0 0 0-102 27 126 126 0 0 0-45 96v44a417 417 0 1 0 391 641 42 42 0 1 0-70-45 333 333 0 1 1 0-363 42 42 0 1 0 70-45 415 415 0 0 0-308-188v-44a42 42 0 0 1 16-32 40 40 0 0 1 33-9 508 508 0 0 1 394 377 123 123 0 0 0-26-3 125 125 0 1 0 125 125z m-83 0a42 42 0 1 1-42-41 42 42 0 0 1 42 41z" horiz-adv-x="1000" />

<glyph glyph-name="fi-rr-bell-ring" unicode="&#xe817;" d="M869 211l-157-256a218 218 0 0 0-161-104 222 222 0 0 0-26-1 217 217 0 0 0-125 40 198 198 0 0 0-279 273l-55 55a219 219 0 0 0 40 342l240 148a369 369 0 0 0 430-23l70 70a42 42 0 1 0 59-59l-70-69a373 373 0 0 0 34-416z m-533-263l-155 155a113 113 0 0 1 19-136 118 118 0 0 1 136-19z m413 650a287 287 0 0 1-359 40l-240-149a136 136 0 0 1-25-212l304-304a136 136 0 0 1 212 25l156 255a289 289 0 0 1-48 345z m54-748a42 42 0 0 0-25 75 360 360 0 0 1 138 226 42 42 0 1 0 82-18 446 446 0 0 0-171-275 42 42 0 0 0-24-8z m-761 761a42 42 0 0 0-34 66 446 446 0 0 0 280 172 42 42 0 1 0 17-81 360 360 0 0 1-230-140 42 42 0 0 0-33-17z" horiz-adv-x="1000" />

<glyph glyph-name="fi-rr-billiard" unicode="&#xe818;" d="M500-150a500 500 0 1 0 500 500 501 501 0 0 0-500-500z m0 917a417 417 0 1 1 417-417 417 417 0 0 1-417 417z m0-750a333 333 0 1 0 333 333 334 334 0 0 0-333-333z m0 583a250 250 0 1 1 250-250 250 250 0 0 1-250 250z m-6-396l125 208a42 42 0 0 1-36 63h-166a42 42 0 0 1 0-83h93l-87-145a42 42 0 1 1 71-43z" horiz-adv-x="1000" />

<glyph glyph-name="fi-rr-bold" unicode="&#xe819;" d="M748 406a291 291 0 0 1-248 444h-292a83 83 0 0 1-83-83v-834a83 83 0 0 1 83-83h417a291 291 0 0 1 123 556z m-456 277h208a125 125 0 0 0 0-250h-208z m333-666h-333v250h333a125 125 0 0 0 0-250z" horiz-adv-x="1000" />

<glyph glyph-name="fi-rr-book" unicode="&#xe81a;" d="M708 850h-416a209 209 0 0 1-209-208v-625a167 167 0 0 1 167-167h458a209 209 0 0 1 209 208v584a209 209 0 0 1-209 208z m125-208v-459h-500v584h375a125 125 0 0 0 125-125z m-583 118v-577a166 166 0 0 1-83-22v481a125 125 0 0 0 83 118z m458-827h-458a83 83 0 0 0 0 167h583v-42a125 125 0 0 0-125-125z" horiz-adv-x="1000" />

<glyph glyph-name="fi-rr-book-alt" unicode="&#xe81b;" d="M925 760a208 208 0 0 1-171 45l-159-29a167 167 0 0 1-95-54 167 167 0 0 1-95 54l-159 29a208 208 0 0 1-246-205v-450a208 208 0 0 1 171-205l262-47a375 375 0 0 1 134 0l262 47a208 208 0 0 1 171 205v450a208 208 0 0 1-75 160z m-467-782c-3 0-7 1-10 2l-262 47a125 125 0 0 0-103 123v450a125 125 0 0 0 125 125 128 128 0 0 0 23-2l159-29a83 83 0 0 0 68-82z m459 172a125 125 0 0 0-103-123l-262-47c-3-1-7-2-10-2v634a83 83 0 0 0 68 82l159 29a125 125 0 0 0 148-123z" horiz-adv-x="1000" />

<glyph glyph-name="fi-rr-bookmark" unicode="&#xe81c;" d="M839-150a117 117 0 0 0-83 35l-256 255-256-255a117 117 0 0 0-129-26 117 117 0 0 0-73 110v673a208 208 0 0 0 208 208h500a208 208 0 0 0 208-208v-673a117 117 0 0 0-73-110 120 120 0 0 0-46-9z m-589 917a125 125 0 0 1-125-125v-673a35 35 0 0 1 60-25h0l286 284a42 42 0 0 0 59 0l285-284a35 35 0 0 1 60 25v673a125 125 0 0 1-125 125z" horiz-adv-x="1000" />

<glyph glyph-name="fi-rr-bowling" unicode="&#xe81d;" d="M667 183a42 42 0 1 0-42 42 42 42 0 0 0 42-42z m125 42a42 42 0 1 1 41-42 42 42 0 0 1-41 42z m-84 125a42 42 0 1 1 42-42 42 42 0 0 1-42 42z m292-167a333 333 0 0 0-550-253 167 167 0 0 0-142-80h-116a167 167 0 0 0-151 96 462 462 0 0 0-41 196 491 491 0 0 0 72 227 352 352 0 0 1 53 148 484 484 0 0 1-23 90 299 299 0 0 0-19 76 167 167 0 0 0 334 0 299 299 0 0 0-19-76 484 484 0 0 1-23-90 279 279 0 0 1 38-119 333 333 0 0 0 587-215z m-833 500c0-6 9-32 14-51a446 446 0 0 0 27-115h84a446 446 0 0 0 27 115 500 500 0 0 1 14 53 83 83 0 0 1-166-2z m216-702a379 379 0 0 1 34 161 421 421 0 0 1-63 189 766 766 0 0 0-47 102h-114a766 766 0 0 0-47-102 421 421 0 0 1-63-189 379 379 0 0 1 34-161 83 83 0 0 1 75-48h116a83 83 0 0 1 75 48z m534 202a250 250 0 0 1-462 132 402 402 0 0 0 45-173 486 486 0 0 0-17-128 250 250 0 0 1 434 169z" horiz-adv-x="1000" />

<glyph glyph-name="fi-rr-box" unicode="&#xe81e;" d="M375 267h250a42 42 0 0 1 0 83h-250a42 42 0 0 1 0-83z m417 583h-584a209 209 0 0 1-208-208v-42a125 125 0 0 1 42-93v-449a209 209 0 0 1 208-208h500a209 209 0 0 1 208 208v449a125 125 0 0 1 42 93v42a209 209 0 0 1-208 208z m-709-208a125 125 0 0 0 125 125h584a125 125 0 0 0 125-125v-42a42 42 0 0 0-42-42h-750a42 42 0 0 0-42 42z m792-584a125 125 0 0 0-125-125h-500a125 125 0 0 0-125 125v417h750z" horiz-adv-x="1000" />

<glyph glyph-name="fi-rr-box-alt" unicode="&#xe81f;" d="M792 850h-584a209 209 0 0 1-208-208v-584a209 209 0 0 1 208-208h584a209 209 0 0 1 208 208v584a209 209 0 0 1-208 208z m125-208h-292v125h167a125 125 0 0 0 125-125z m-459 125h84v-209a42 42 0 0 0-84 0z m-250 0h167v-125h-292a125 125 0 0 0 125 125z m584-834h-584a125 125 0 0 0-125 125v500h292a125 125 0 0 1 250 0h292v-500a125 125 0 0 0-125-125z m41 125a42 42 0 0 0-41-41h-125a42 42 0 0 0 0 83h125a42 42 0 0 0 41-42z" horiz-adv-x="1000" />

<glyph glyph-name="fi-rr-briefcase" unicode="&#xe820;" d="M792 683h-46a209 209 0 0 1-204 167h-84a209 209 0 0 1-204-167h-46a209 209 0 0 1-208-208v-417a209 209 0 0 1 208-208h584a209 209 0 0 1 208 208v417a209 209 0 0 1-208 208z m-334 84h84a125 125 0 0 0 117-84h-318a125 125 0 0 0 117 84z m-250-167h584a125 125 0 0 0 125-125v-125h-834v125a125 125 0 0 0 125 125z m584-667h-584a125 125 0 0 0-125 125v209h375v-42a42 42 0 0 1 84 0v42h375v-209a125 125 0 0 0-125-125z" horiz-adv-x="1000" />

<glyph glyph-name="fi-rr-broom" unicode="&#xe821;" d="M988 755a42 42 0 0 1-59 0l-199-199-13 13a209 209 0 0 1-268 20 692 692 0 0 0-190-101l-86-25a210 210 0 0 1-130-110 207 207 0 0 1-5-167 540 540 0 0 1 504-337h39a42 42 0 0 1 24 8 637 637 0 0 1 279 426 210 210 0 0 1-60 182l-33 32 197 198a42 42 0 0 1 0 60z m-421-821h-25a471 471 0 0 0-179 35l0 0a481 481 0 0 1 181 159l22 32a42 42 0 0 1-70 47l-21-32a397 397 0 0 0-150-130l-52-26a448 448 0 0 0-108 107 484 484 0 0 1 183 111 42 42 0 0 1-59 60 401 401 0 0 0-166-97c-3 6-5 11-8 17a121 121 0 0 0 4 99 126 126 0 0 0 78 66l86 25a640 640 0 0 1 143 67l329-322a591 591 0 0 0-188-218z m234 362a518 518 0 0 0-13-58l-290 283 0 0a126 126 0 0 0 73 23 124 124 0 0 0 87-35l107-104a125 125 0 0 0 36-109z" horiz-adv-x="1000" />

<glyph glyph-name="fi-rr-apps-delete" unicode="&#xe822;" d="M292 850h-125a167 167 0 0 1-167-167v-125a167 167 0 0 1 167-166h125a167 167 0 0 1 166 166v125a167 167 0 0 1-166 167z m83-292a83 83 0 0 0-83-83h-125a83 83 0 0 0-84 83v125a83 83 0 0 0 84 84h125a83 83 0 0 0 83-84z m-83-250h-125a167 167 0 0 1-167-166v-125a167 167 0 0 1 167-167h125a167 167 0 0 1 166 167v125a167 167 0 0 1-166 166z m83-291a83 83 0 0 0-83-84h-125a83 83 0 0 0-84 84v125a83 83 0 0 0 84 83h125a83 83 0 0 0 83-83z m458 291h-125a167 167 0 0 1-166-166v-125a167 167 0 0 1 166-167h125a167 167 0 0 1 167 167v125a167 167 0 0 1-167 166z m84-291a83 83 0 0 0-84-84h-125a83 83 0 0 0-83 84v125a83 83 0 0 0 83 83h125a83 83 0 0 0 84-83z m-334 541h334a42 42 0 0 1 0 84h-334a42 42 0 0 1 0-84z" horiz-adv-x="1000" />

<glyph glyph-name="fi-rr-apps-sort" unicode="&#xe823;" d="M292 850h-125a167 167 0 0 1-167-167v-125a167 167 0 0 1 167-166h125a167 167 0 0 1 166 166v125a167 167 0 0 1-166 167z m83-292a83 83 0 0 0-83-83h-125a83 83 0 0 0-84 83v125a83 83 0 0 0 84 84h125a83 83 0 0 0 83-84z m-83-250h-125a167 167 0 0 1-167-166v-125a167 167 0 0 1 167-167h125a167 167 0 0 1 166 167v125a167 167 0 0 1-166 166z m83-291a83 83 0 0 0-83-84h-125a83 83 0 0 0-84 84v125a83 83 0 0 0 84 83h125a83 83 0 0 0 83-83z m554 39l-96-95v779l96-95a42 42 0 1 1 59 59l-108 108a125 125 0 0 1-177 0l-107-108a42 42 0 1 1 59-59l95 95v-779l-95 95a42 42 0 1 1-59-59l107-107a125 125 0 0 1 177 0l108 107a42 42 0 1 1-59 59z" horiz-adv-x="1000" />

<glyph glyph-name="fi-rr-archive" unicode="&#xe824;" d="M708 850h-416a209 209 0 0 1-209-208v-584a209 209 0 0 1 209-208h416a209 209 0 0 1 209 208v584a209 209 0 0 1-209 208z m-416-83h416a125 125 0 0 0 125-125v-250h-666v250a125 125 0 0 0 125 125z m416-834h-416a125 125 0 0 0-125 125v250h666v-250a125 125 0 0 0-125-125z m-250 625h84a42 42 0 0 1 0 84h-84a42 42 0 0 1 0-84z m84-416h-84a42 42 0 0 1 0-84h84a42 42 0 0 1 0 84z" horiz-adv-x="1000" />

<glyph glyph-name="fi-rr-arrow-down" unicode="&#xe825;" d="M752 109a42 42 0 0 1-59 0l-151-152 0 851a42 42 0 0 1-42 42h0a42 42 0 0 1-42-42l0-850-150 151a42 42 0 1 1-59-59l163-163a125 125 0 0 1 177 0l163 163a42 42 0 0 1 0 59z" horiz-adv-x="1000" />

<glyph glyph-name="fi-rr-arrow-left" unicode="&#xe826;" d="M37 263l161-162a42 42 0 0 1 59 0h0a42 42 0 0 1 0 59l-148 148 849 0a42 42 0 0 1 42 42h0a42 42 0 0 1-42 42l-852 0 151 151a42 42 0 0 1 0 58h0a42 42 0 0 1-59 0l-161-161a125 125 0 0 1 0-177z" horiz-adv-x="1000" />

<glyph glyph-name="fi-rr-arrow-right" unicode="&#xe827;" d="M964 437l-162 162a42 42 0 0 1-59 0h0a42 42 0 0 1 0-59l148-148h-849a42 42 0 0 1-42-42h0a42 42 0 0 1 42-42h852l-151-150a42 42 0 0 1 0-59h0a42 42 0 0 1 59 0l162 161a125 125 0 0 1 0 177z" horiz-adv-x="1000" />

<glyph glyph-name="fi-rr-arrow-small-down" unicode="&#xe828;" d="M738 303a42 42 0 0 1-59 0l-137-137-1 434a42 42 0 0 1-83 0l0-434-137 137a42 42 0 1 1-59-59l150-149a125 125 0 0 1 176 0l150 149a42 42 0 0 1 0 59z" horiz-adv-x="1000" />

<glyph glyph-name="fi-rr-arrow-small-left" unicode="&#xe829;" d="M453 112a42 42 0 0 1 0 59l-137 137 434 0a42 42 0 0 1 0 84l-434-1 137 138a42 42 0 0 1-59 59l-149-150a125 125 0 0 1 0-177l149-149a42 42 0 0 1 59 0z" horiz-adv-x="1000" />

<glyph glyph-name="fi-rr-arrow-small-right" unicode="&#xe82a;" d="M547 588a42 42 0 0 1 0-59l137-137-434-1a42 42 0 1 1 0-83l434 0-137-137a42 42 0 1 1 59-59l149 150a125 125 0 0 1 0 176l-149 150a42 42 0 0 1-59 0z" horiz-adv-x="1000" />

<glyph glyph-name="fi-rr-arrow-small-up" unicode="&#xe82b;" d="M262 397a42 42 0 0 1 59 0l137 137 1-434a42 42 0 0 1 83 0l0 434 137-137a42 42 0 1 1 59 59l-150 149a125 125 0 0 1-176 0l-150-149a42 42 0 0 1 0-59z" horiz-adv-x="1000" />

<glyph glyph-name="fi-rr-arrow-up" unicode="&#xe82c;" d="M780 622l-192 192a125 125 0 0 1-176 0l-191-192a42 42 0 1 1 59-58l178 178v-850a42 42 0 0 1 84 0v850l179-178a42 42 0 1 1 59 58z" horiz-adv-x="1000" />

<glyph glyph-name="fi-rr-asterisk" unicode="&#xe82d;" d="M856 321l-47 29 47 29a172 172 0 0 1 72 85 163 163 0 0 1-137 220 172 172 0 0 1-108-28l-16-10v30a172 172 0 0 1-151 173 167 167 0 0 1-183-166v-37l-16 10a172 172 0 0 1-108 28 163 163 0 0 1-137-220 172 172 0 0 1 72-85l47-29-47-29a172 172 0 0 1-72-85 163 163 0 0 1 137-219 172 172 0 0 1 108 27l16 10v-37a167 167 0 0 1 334 0v37l16-10a172 172 0 0 1 108-27 163 163 0 0 1 137 219 172 172 0 0 1-72 85z m-13-184a80 80 0 0 0-110-26l-86 54a42 42 0 0 1-64-36v-112a83 83 0 0 0-166 0v112a42 42 0 0 1-64 36l-86-54a80 80 0 1 0-84 136l109 68a42 42 0 0 1 0 71l-109 68a80 80 0 0 0 84 135l86-53a42 42 0 0 1 64 35v108a87 87 0 0 0 69 87 83 83 0 0 0 97-83v-112a42 42 0 0 1 64-35l86 53a80 80 0 1 0 84-136l-109-68a42 42 0 0 1 0-70l109-69h0a80 80 0 0 0 26-109z" horiz-adv-x="1000" />

<glyph glyph-name="fi-rr-backpack" unicode="&#xe82e;" d="M375 392a42 42 0 0 0 42 41h166a42 42 0 0 0 0-83h-166a42 42 0 0 0-42 42z m625-292v-42a209 209 0 0 0-208-208h-584a209 209 0 0 0-208 208v42a209 209 0 0 0 167 204v46a333 333 0 0 0 167 289c0 1-1 2-1 3v41a167 167 0 0 0 334 0v-41c0-1-1-2-1-3a333 333 0 0 0 167-289v-46a209 209 0 0 0 167-204z m-583 572a322 322 0 0 0 166 0v11a83 83 0 0 1-166 0z m-167-511a349 349 0 0 0 500 0v189a250 250 0 0 1-500 0z m-42-228h1a206 206 0 0 0-42 125v159a125 125 0 0 1-84-117v-42a125 125 0 0 1 125-125z m417 0a125 125 0 0 1 120 92 268 268 0 0 1-490 0 125 125 0 0 1 120-92z m292 167a125 125 0 0 1-84 117v-159a206 206 0 0 0-42-125h1a125 125 0 0 1 125 125z" horiz-adv-x="1000" />

<glyph glyph-name="fi-rr-badge" unicode="&#xe82f;" d="M833 517a333 333 0 1 1-583-220v-343a104 104 0 0 1 169-81l68 54a21 21 0 0 0 26 0l68-54a104 104 0 0 1 169 81v343a332 332 0 0 1 83 220z m-333 250a250 250 0 1 0-250-250 250 250 0 0 0 250 250z m155-832a21 21 0 0 0-22 3l-68 54a104 104 0 0 1-130 0l-68-54a21 21 0 0 0-34 16v274a331 331 0 0 1 334 0v-274a20 20 0 0 0-12-19z" horiz-adv-x="1000" />

<glyph glyph-name="fi-rr-ban" unicode="&#xe830;" d="M500 850a500 500 0 1 1 500-500 501 501 0 0 1-500 500z m0-83a415 415 0 0 0 264-95l-586-585a416 416 0 0 0 322 680z m0-834a415 415 0 0 0-263 95l585 586a416 416 0 0 0-322-681z" horiz-adv-x="1000" />

<glyph glyph-name="fi-rr-band-aid" unicode="&#xe831;" d="M375 433a42 42 0 1 0 42-41 42 42 0 0 0-42 41z m208-41a42 42 0 1 1-41 41 42 42 0 0 1 41-41z m-166-84a42 42 0 1 1 41-41 42 42 0 0 1-41 41z m166-83a42 42 0 1 1-41 42 42 42 0 0 1 41-42z m417 208v-166a209 209 0 0 0-208-209h-584a209 209 0 0 0-208 209v166a209 209 0 0 0 208 209h584a209 209 0 0 0 208-209z m-708 125v-416h416v416z m-84-416v416a125 125 0 0 1-125-125v-166a125 125 0 0 1 125-125z m709 291a125 125 0 0 1-125 125v-416a125 125 0 0 1 125 125z" horiz-adv-x="1000" />

<glyph glyph-name="fi-rr-bank" unicode="&#xe832;" d="M1000-108a42 42 0 0 0-42-42h-916a42 42 0 0 0 0 83h916a42 42 0 0 0 42-41z m-988 602a102 102 0 0 0 7 107 197 197 0 0 0 69 62l313 163a216 216 0 0 0 199 0l312-163h0a197 197 0 0 0 70-62 102 102 0 0 0 6-107 113 113 0 0 0-101-61h-12v-333h42a42 42 0 0 0 0-83h-834a42 42 0 0 0 0 83h42v333h-12a113 113 0 0 0-101 61z m196-394h125v333h-125z m209 333v-333h166v333z m375 0h-125v-333h125z m-706 99a30 30 0 0 1 27-15h774a30 30 0 0 1 27 15 19 19 0 0 1-1 21 113 113 0 0 1-39 36h0l-313 163a132 132 0 0 1-122 0l-312-163a113 113 0 0 1-40-36 19 19 0 0 1-1-21z" horiz-adv-x="1000" />

<glyph glyph-name="fi-rr-barber-shop" unicode="&#xe833;" d="M493 164a2228 2228 0 0 0-154 241c64 124 119 271 119 403a42 42 0 0 1-83 0 779 779 0 0 0-83-309 779 779 0 0 0-84 309 42 42 0 0 1-83 0c0-132 56-279 120-403a2110 2110 0 0 0-154-241 166 166 0 1 1 201-256 166 166 0 1 1 201 256z m-326-231a83 83 0 1 0 83 84 83 83 0 0 0-83-84z m37 246c24 35 55 83 88 139 33-56 64-104 88-139a166 166 0 0 1-88-53 166 166 0 0 1-88 53z m213-246a83 83 0 1 0 83 84 83 83 0 0 0-83-84z m333 667v-83h208a42 42 0 0 0 0-84h-208v-83h208a42 42 0 0 0 0-83h-208v-84h208a42 42 0 0 0 0-83h-208v-208a42 42 0 0 0-83 0v750a209 209 0 0 0 208 208h83a42 42 0 0 0 0-83h-83a125 125 0 0 1-117-84h200a42 42 0 0 0 0-83z" horiz-adv-x="1000" />

<glyph glyph-name="fi-rr-baseball" unicode="&#xe834;" d="M500 850a500 500 0 1 1 500-500 501 501 0 0 1-500 500z m328-756a333 333 0 0 0-85 108l64 26a42 42 0 1 1-31 77l-60-24a312 312 0 0 0 0 138l60-24a42 42 0 1 1 31 77l-64 26a333 333 0 0 0 85 108 414 414 0 0 0 0-512z m-656 512a333 333 0 0 0 85-108l-64-26a42 42 0 0 1 31-77l60 24a333 333 0 0 0 8-69 333 333 0 0 0-8-69l-60 24a42 42 0 1 1-31-77l64-26a333 333 0 0 0-85-108 414 414 0 0 0 0 512z m58-572a415 415 0 0 1 104 138l67-27a42 42 0 1 1 31 77l-69 28a418 418 0 0 1 12 100 418 418 0 0 1-12 100l69 28a42 42 0 1 1-31 77l-67-27a415 415 0 0 1-104 138 415 415 0 0 0 541 0 415 415 0 0 1-105-137l-67 26a42 42 0 1 1-31-77l70-28a415 415 0 0 1 0-200l-70-28a42 42 0 0 1 31-78l67 27a415 415 0 0 1 105-137 415 415 0 0 0-541 0z" horiz-adv-x="1000" />

<glyph glyph-name="fi-rr-basketball" unicode="&#xe835;" d="M854-2a499 499 0 0 1 0 704c0 1 0 1 0 2s-1 0-2 0a499 499 0 0 1-704 0c-1 0-1 0-1 0s-1-1-1-2a499 499 0 0 1 0-704c0-1 0-1 1-2s0 0 1-1a499 499 0 0 1 704 0c1 1 1 1 2 1s0 1 0 2z m-768 308a414 414 0 0 0 220-92l-128-127a415 415 0 0 0-92 219z m91 308l264-264-76-76a497 497 0 0 1-280 116 415 415 0 0 0 93 224z m737-220a414 414 0 0 0-220 92l128 128a415 415 0 0 0 92-220z m-279 151a414 414 0 0 0-91 220 415 415 0 0 0 219-92z m-58-60l-77-76-263 263a415 415 0 0 0 224 93 497 497 0 0 1 116-280z m-213-329a414 414 0 0 0 92-220 415 415 0 0 0-219 92z m60 59l76 76 264-263a415 415 0 0 0-224-93 497 497 0 0 1-116 280z m135 135l76 77a497 497 0 0 1 280-116 415 415 0 0 0-93-224z" horiz-adv-x="1000" />

<glyph glyph-name="fi-rr-cloud" unicode="&#xe836;" d="M741 550a333 333 0 0 1-658-75 330 330 0 0 1 38-153 229 229 0 0 1 108-430h438a333 333 0 0 1 74 658z m-74-575h-438a146 146 0 0 0-36 286 42 42 0 0 1 23 66 248 248 0 0 0-49 148 250 250 0 0 0 497 33 42 42 0 0 1 36-35 250 250 0 0 0-33-498z" horiz-adv-x="1000" />

<glyph glyph-name="fi-rr-cloud-check" unicode="&#xe837;" d="M487-108a124 124 0 0 0-88 36l-141 143a42 42 0 1 0 59 58l141-142a43 43 0 0 1 59 0l225 226a42 42 0 0 0 59-59l-226-226a124 124 0 0 0-88-36z m-195 41a42 42 0 0 1-42 42h-13a159 159 0 0 0-152 124 145 145 0 0 0 76 150 83 83 0 0 1 33 112 250 250 0 1 0 461 188 129 129 0 0 1 85-85 249 249 0 0 0 176-259 244 244 0 0 0-179-212 42 42 0 0 1 26-79 327 327 0 0 1 2 629 45 45 0 0 0-30 31 333 333 0 0 1-646-35 319 319 0 0 1 34-216 227 227 0 0 1-121-235 244 244 0 0 1 235-196h13a42 42 0 0 1 42 41z" horiz-adv-x="1000" />

<glyph glyph-name="fi-rr-cloud-disabled" unicode="&#xe838;" d="M908 1a312 312 0 0 1 91 197 332 332 0 0 1-234 345 45 45 0 0 0-30 31 332 332 0 0 1-545 145l-119 119a42 42 0 0 1-59-59l917-917a42 42 0 0 1 59 59z m-529 721a250 250 0 0 0 276-173 129 129 0 0 1 85-85 249 249 0 0 0 176-259 225 225 0 0 0-68-144l-599 599a248 248 0 0 0 130 62z m329-782a42 42 0 0 0-37-45 509 509 0 0 0-55-3h-379a244 244 0 0 0-235 196 227 227 0 0 0 120 235 319 319 0 0 0-35 200 42 42 0 0 0 82-12 249 249 0 0 1 25-149 83 83 0 0 0-33-113 145 145 0 0 1-76-150 159 159 0 0 1 152-124h379a427 427 0 0 1 46 2 42 42 0 0 0 46-37z" horiz-adv-x="1000" />

<glyph glyph-name="fi-rr-cloud-download" unicode="&#xe839;" d="M781 3a42 42 0 0 0-3-59l-66-59a121 121 0 0 0-86-35 126 126 0 0 0-89 37l-65 57a42 42 0 0 0 56 62l55-50v311a42 42 0 0 0 84 0v-311l55 50a42 42 0 0 0 59-3z m-16 540a45 45 0 0 0-30 31 333 333 0 0 1-646-35 319 319 0 0 1 34-216 227 227 0 0 1-121-235 244 244 0 0 1 235-196h96a42 42 0 0 1 0 83h-96a159 159 0 0 0-152 124 145 145 0 0 0 76 150 83 83 0 0 1 33 112 250 250 0 1 0 461 188 129 129 0 0 1 85-85 249 249 0 0 0 176-259 224 224 0 0 0-46-121 42 42 0 0 1 66-51 311 311 0 0 1 63 165 332 332 0 0 1-234 345z" horiz-adv-x="1000" />

<glyph glyph-name="fi-rr-cloud-share" unicode="&#xe83a;" d="M875 100a124 124 0 0 1-86-35l-124 62a121 121 0 0 1 2 15 121 121 0 0 1-2 15l124 62a125 125 0 1 1-39 89 121 121 0 0 1 2-15l-124-61a125 125 0 1 1 0-180l124-62a121 121 0 0 1-2-15 125 125 0 1 1 125 125z m0 250a42 42 0 1 0-42-42 42 42 0 0 0 42 42z m-333-250a42 42 0 1 0 41 42 42 42 0 0 0-41-42z m333-167a42 42 0 1 0 42 42 42 42 0 0 0-42-42z m-375 0a42 42 0 0 0-42-41h-221a243 243 0 0 0-235 196 227 227 0 0 0 121 235 319 319 0 0 0-34 216 333 333 0 0 0 646 35 45 45 0 0 1 30-31 42 42 0 1 0-25-79 129 129 0 0 0-85 85 250 250 0 1 1-461-188 83 83 0 0 0-33-112 145 145 0 0 1-76-150 159 159 0 0 1 152-124h221a42 42 0 0 0 42-42z" horiz-adv-x="1000" />

<glyph glyph-name="fi-rr-cloud-upload" unicode="&#xe83b;" d="M767 543a47 47 0 0 0-32 31h0a333 333 0 1 1-629-218 44 44 0 0 0-13-52 229 229 0 0 1-91-216 234 234 0 0 1 235-196h221a42 42 0 0 1 42 41h0a42 42 0 0 1-42 42h-221a151 151 0 0 0-152 124 144 144 0 0 0 57 139 126 126 0 0 1 41 148 255 255 0 0 0-3 172 248 248 0 0 0 204 165 263 263 0 0 0 32 2 249 249 0 0 0 240-178 124 124 0 0 1 84-83 247 247 0 0 0 32-462 41 41 0 0 1-22-38h0a41 41 0 0 1 58-38c172 83 266 301 120 512a289 289 0 0 1-161 105z m13-330l-125 125a42 42 0 0 1-59 0l-125-125a42 42 0 0 1 59-59l53 54v-316a42 42 0 0 1 84 0v316l54-54a42 42 0 1 1 59 59z" horiz-adv-x="1000" />

<glyph glyph-name="fi-rr-comment" unicode="&#xe83c;" d="M1000 381a501 501 0 1 1-499-531h291a209 209 0 0 1 208 208v323z m-83-323a125 125 0 0 0-125-125h-291a418 418 0 0 0-312 140 413 413 0 0 0-103 325 419 419 0 0 0 361 365 440 440 0 0 0 54 4 413 413 0 0 0 266-96 418 418 0 0 0 150-294z m-584 417h167a42 42 0 0 1 0 83h-167a42 42 0 0 1 0-83z m334-83h-334a42 42 0 0 1 0-84h334a42 42 0 0 1 0 84z m0-167h-334a42 42 0 0 1 0-83h334a42 42 0 0 1 0 83z" horiz-adv-x="1000" />

<glyph glyph-name="fi-rr-comment-alt" unicode="&#xe83d;" d="M833 850h-666a167 167 0 0 1-167-167v-500a167 167 0 0 1 167-166h121l185-157a42 42 0 0 1 54 0l186 157h120a167 167 0 0 1 167 166v500a167 167 0 0 1-167 167z m84-667a83 83 0 0 0-84-83h-120a83 83 0 0 1-54-20l-159-134-159 134h0a83 83 0 0 1-53 20h-121a83 83 0 0 0-84 83v500a83 83 0 0 0 84 84h666a83 83 0 0 0 84-84z m-625 375h208a42 42 0 0 1 0 84h-208a42 42 0 0 1 0-84z m416-83h-416a42 42 0 0 1 0-83h416a42 42 0 0 1 0 83z m0-167h-416a42 42 0 0 1 0-83h416a42 42 0 0 1 0 83z" horiz-adv-x="1000" />

<glyph glyph-name="fi-rr-compress" unicode="&#xe83e;" d="M292 850a42 42 0 0 1-42-42v-83a125 125 0 0 0-125-125h-83a42 42 0 0 1 0-83h83a209 209 0 0 1 208 208v83a42 42 0 0 1-41 42z m666-667h-83a209 209 0 0 1-208-208v-83a42 42 0 0 1 83 0v83a125 125 0 0 0 125 125h83a42 42 0 0 1 0 83z m-83 334h83a42 42 0 0 1 0 83h-83a125 125 0 0 0-125 125v83a42 42 0 0 1-83 0v-83a209 209 0 0 1 208-208z m-750-334h-83a42 42 0 0 1 0-83h83a125 125 0 0 0 125-125v-83a42 42 0 0 1 83 0v83a209 209 0 0 1-208 208z" horiz-adv-x="1000" />

<glyph glyph-name="fi-rr-compress-alt" unicode="&#xe83f;" d="M304 763l-79-79-154 154a42 42 0 0 1-59-59l154-154-79-79a42 42 0 0 1 30-71h198a60 60 0 0 1 60 60v198a42 42 0 0 1-71 30z m530-688l79 79a42 42 0 0 1-30 71h-198a60 60 0 0 1-60-60v-198a42 42 0 0 1 71-30l79 79 154-154a42 42 0 0 1 59 59z m-149 400h198a42 42 0 0 1 30 71l-79 79 154 154a42 42 0 0 1-59 59l-154-154-79 79a42 42 0 0 1-71-30v-198a60 60 0 0 1 60-60z m-370-250h-198a42 42 0 0 1-30-71l79-79-154-154a42 42 0 1 1 59-59l154 154 79-79a42 42 0 0 1 71 30v198a60 60 0 0 1-60 60z" horiz-adv-x="1000" />

<glyph glyph-name="fi-rr-computer" unicode="&#xe840;" d="M792 808h-584a209 209 0 0 1-208-208v-333a209 209 0 0 1 208-209h250v-83h-166a42 42 0 0 1 0-83h416a42 42 0 0 1 0 83h-166v83h250a209 209 0 0 1 208 209v333a209 209 0 0 1-208 208z m-584-83h584a125 125 0 0 0 125-125v-292h-834v292a125 125 0 0 0 125 125z m584-583h-584a125 125 0 0 0-117 83h818a125 125 0 0 0-117-83z" horiz-adv-x="1000" />

<glyph glyph-name="fi-rr-cookie" unicode="&#xe841;" d="M998 398a42 42 0 0 1-38 37 417 417 0 0 0-375 375 42 42 0 0 1-37 38c-16 1-32 2-48 2a500 500 0 1 1 500-500c0 16-1 32-2 48z m-498-465a417 417 0 0 0 0 834l7 0a500 500 0 0 1 410-410c0-2 0-5 0-7a417 417 0 0 0-417-417z" horiz-adv-x="1000" />

<glyph glyph-name="fi-rr-copy" unicode="&#xe842;" d="M625 17h-417a209 209 0 0 0-208 208v417a209 209 0 0 0 208 208h417a209 209 0 0 0 208-208v-417a209 209 0 0 0-208-208z m-417 750a125 125 0 0 1-125-125v-417a125 125 0 0 1 125-125h417a125 125 0 0 1 125 125v417a125 125 0 0 1-125 125z m792-709v542a42 42 0 0 1-83 0v-542a125 125 0 0 0-125-125h-542a42 42 0 0 1 0-83h542a209 209 0 0 1 208 208z" horiz-adv-x="1000" />

<glyph glyph-name="fi-rr-browser" unicode="&#xe843;" d="M792 808h-584a209 209 0 0 1-208-208v-500a209 209 0 0 1 208-208h584a209 209 0 0 1 208 208v500a209 209 0 0 1-208 208z m-584-83h584a125 125 0 0 0 125-125v-42h-834v42a125 125 0 0 0 125 125z m584-750h-584a125 125 0 0 0-125 125v375h834v-375a125 125 0 0 0-125-125z m0 333a42 42 0 0 0-42-41h-500a42 42 0 0 0 0 83h500a42 42 0 0 0 42-42z m-167-166a42 42 0 0 0-42-42h-333a42 42 0 0 0 0 83h333a42 42 0 0 0 42-41z m-500 500a42 42 0 1 0 42-42 42 42 0 0 0-42 42z m125 0a42 42 0 1 0 42-42 42 42 0 0 0-42 42z m125 0a42 42 0 1 0 42-42 42 42 0 0 0-42 42z" horiz-adv-x="1000" />

<glyph glyph-name="fi-rr-brush" unicode="&#xe844;" d="M792 850h-584a209 209 0 0 1-208-208v-209a292 292 0 0 1 292-291h83v-167a125 125 0 0 1 250 0v167h83a292 292 0 0 1 292 291v209a209 209 0 0 1-208 208z m-709-208a125 125 0 0 0 125 125h209v-42a42 42 0 0 1 83 0v42h83v-125a42 42 0 0 1 84 0v125h83v-209a42 42 0 0 1 83 0v201a125 125 0 0 0 84-117v-209h-834z m625-417h-125a42 42 0 0 1-41-42v-208a42 42 0 0 0-84 0v208a42 42 0 0 1-41 42h-125a208 208 0 0 0-191 125h798a208 208 0 0 0-191-125z" horiz-adv-x="1000" />

<glyph glyph-name="fi-rr-building" unicode="&#xe845;" d="M292 267a42 42 0 0 0-42-42h-42a42 42 0 0 0 0 83h42a42 42 0 0 0 42-41z m166 41h-41a42 42 0 0 1 0-83h41a42 42 0 0 1 0 83z m-208-166h-42a42 42 0 0 1 0-84h42a42 42 0 0 1 0 84z m208 0h-41a42 42 0 0 1 0-84h41a42 42 0 0 1 0 84z m-208 500h-42a42 42 0 0 1 0-84h42a42 42 0 0 1 0 84z m208 0h-41a42 42 0 0 1 0-84h41a42 42 0 0 1 0 84z m-208-167h-42a42 42 0 0 1 0-83h42a42 42 0 0 1 0 83z m208 0h-41a42 42 0 0 1 0-83h41a42 42 0 0 1 0 83z m542-42v-375a209 209 0 0 0-208-208h-584a209 209 0 0 0-208 208v584a209 209 0 0 0 208 208h250a209 209 0 0 0 209-208h125a209 209 0 0 0 208-209z m-792-500h375v709a125 125 0 0 1-125 125h-250a125 125 0 0 1-125-125v-584a125 125 0 0 1 125-125z m709 500a125 125 0 0 1-125 125h-125v-625h125a125 125 0 0 1 125 125z m-125-125a42 42 0 1 1 41-41 42 42 0 0 1-41 41z m0-166a42 42 0 1 1 41-42 42 42 0 0 1-41 42z m0 333a42 42 0 1 1 41-42 42 42 0 0 1-41 42z" horiz-adv-x="1000" />

<glyph glyph-name="fi-rr-bug" unicode="&#xe846;" d="M917 558a83 83 0 0 1 83 84v166a42 42 0 0 1-83 0v-166h-167c-1 0-1-1-2-1a267 267 0 0 1-495 0c-1 0-2 1-3 1h-167v166a42 42 0 0 1-83 0v-166a83 83 0 0 1 83-84h146l-43-166h-144a42 42 0 0 1 0-84h123l-6-23-1-6a349 349 0 0 1-3-43 342 342 0 0 1 14-94h-86a83 83 0 0 1-83-84v-166a42 42 0 0 1 83 0v166h122a344 344 0 0 1 590 0h122v-166a42 42 0 0 1 83 0v166a83 83 0 0 1-83 84h-86a342 342 0 0 1 14 94 349 349 0 0 1-3 43l-8 29h124a42 42 0 0 1 0 84h-145l-42 166z m-417-583a262 262 0 0 0-261 261 258 258 0 0 0 2 31l84 334a185 185 0 0 0 349 2l85-336a258 258 0 0 0 2-30 262 262 0 0 0-261-262z" horiz-adv-x="1000" />

<glyph glyph-name="fi-rr-bulb" unicode="&#xe847;" d="M750 755a375 375 0 0 1-622-231 372 372 0 0 1 117-323 261 261 0 0 0 88-190v-7a154 154 0 0 1 154-154h26a154 154 0 0 1 154 154v23a222 222 0 0 0 80 166 375 375 0 0 1 3 562z m-237-822h-26a71 71 0 0 0-70 71s-1 11-1 13h167v-13a71 71 0 0 0-70-71z m179 323a320 320 0 0 1-98-156h-52v299a125 125 0 0 1 83 118 42 42 0 0 1-83 0 42 42 0 0 0-84 0 42 42 0 0 1-83 0 125 125 0 0 1 83-118v-299h-55a360 360 0 0 1-102 162 292 292 0 0 0 165 503 311 311 0 0 0 34 2 288 288 0 0 0 194-74 291 291 0 0 0-2-437z" horiz-adv-x="1000" />

<glyph glyph-name="fi-rr-calculator" unicode="&#xe848;" d="M750-150h-500a209 209 0 0 0-208 208v584a209 209 0 0 0 208 208h500a209 209 0 0 0 208-208v-584a209 209 0 0 0-208-208z m-500 917a125 125 0 0 1-125-125v-584a125 125 0 0 1 125-125h500a125 125 0 0 1 125 125v584a125 125 0 0 1-125 125z m417-334h-334a125 125 0 0 0 0 250h334a125 125 0 0 0 0-250z m-334 167a42 42 0 0 1 0-83h334a42 42 0 0 1 0 83z m-83-292a42 42 0 1 1 42-41 42 42 0 0 1-42 41z m167 0a42 42 0 1 1 41-41 42 42 0 0 1-41 41z m166 0a42 42 0 1 1 42-41 42 42 0 0 1-42 41z m-333-166a42 42 0 1 1 42-42 42 42 0 0 1-42 42z m167 0a42 42 0 1 1 41-42 42 42 0 0 1-41 42z m333 166a42 42 0 1 1 42-41 42 42 0 0 1-42 41z m42-208a42 42 0 0 1-42 42h-167a42 42 0 0 1 0-84h167a42 42 0 0 1 42 42z" horiz-adv-x="1000" />

<glyph glyph-name="fi-rr-calendar" unicode="&#xe849;" d="M792 767h-42v41a42 42 0 0 1-83 0v-41h-334v41a42 42 0 0 1-83 0v-41h-42a209 209 0 0 1-208-209v-500a209 209 0 0 1 208-208h584a209 209 0 0 1 208 208v500a209 209 0 0 1-208 209z m-709-209a125 125 0 0 0 125 125h584a125 125 0 0 0 125-125v-41h-834z m709-625h-584a125 125 0 0 0-125 125v375h834v-375a125 125 0 0 0-125-125z" horiz-adv-x="1000" />

<glyph glyph-name="fi-rr-camera" unicode="&#xe84a;" d="M792 683h-21l-91 118a126 126 0 0 1-99 49h-161a126 126 0 0 1-99-49l-91-118h-22a209 209 0 0 1-208-208v-417a209 209 0 0 1 208-208h584a209 209 0 0 1 208 208v417a209 209 0 0 1-208 208z m-405 67a42 42 0 0 0 33 17h161a42 42 0 0 0 33-17l51-67h-330z m530-692a125 125 0 0 0-125-125h-584a125 125 0 0 0-125 125v417a125 125 0 0 0 125 125h584a125 125 0 0 0 125-125z m-417 459a250 250 0 1 1 250-250 250 250 0 0 1-250 250z m0-417a167 167 0 1 0 167 167 167 167 0 0 0-167-167z" horiz-adv-x="1000" />

<glyph glyph-name="fi-rr-caret-down" unicode="&#xe84b;" d="M267 475h466a42 42 0 0 0 29-71l-232-233a42 42 0 0 0-59 0l-233 233a42 42 0 0 0 29 71z" horiz-adv-x="1000" />

<glyph glyph-name="fi-rr-caret-left" unicode="&#xe84c;" d="M554 76l-233 232a42 42 0 0 0 0 59l233 233a42 42 0 0 0 71-29v-466a42 42 0 0 0-71-29z" horiz-adv-x="1000" />

<glyph glyph-name="fi-rr-caret-right" unicode="&#xe84d;" d="M375 105v466a42 42 0 0 0 71 29l233-233a42 42 0 0 0 0-59l-233-232a42 42 0 0 0-71 29z" horiz-adv-x="1000" />

<glyph glyph-name="fi-rr-caret-up" unicode="&#xe84e;" d="M267 183h466a42 42 0 0 1 29 72l-232 232a42 42 0 0 1-59 0l-233-232a42 42 0 0 1 29-72z" horiz-adv-x="1000" />

<glyph glyph-name="fi-rr-check" unicode="&#xe84f;" d="M930 665l-576-575a42 42 0 0 0-59 0l-222 223a42 42 0 0 1-60 0h0a42 42 0 0 1 0-59l223-223a125 125 0 0 1 177 0l576 575a42 42 0 0 1 0 59h0a42 42 0 0 1-59 0z" horiz-adv-x="1000" />

<glyph glyph-name="fi-rr-checkbox" unicode="&#xe850;" d="M792 850h-584a209 209 0 0 1-208-208v-584a209 209 0 0 1 208-208h584a209 209 0 0 1 208 208v584a209 209 0 0 1-208 208z m125-792a125 125 0 0 0-125-125h-584a125 125 0 0 0-125 125v584a125 125 0 0 0 125 125h584a125 125 0 0 0 125-125z m-528 129l-163 163a42 42 0 0 1-59 0h0a42 42 0 0 1 0-59l163-163a83 83 0 0 1 118 0l385 385a42 42 0 0 1 0 59h0a42 42 0 0 1-59 0z" horiz-adv-x="1000" />

<glyph glyph-name="fi-rr-chess" unicode="&#xe851;" d="M834-68h-41v69a167 167 0 0 1-51 120c-80 77-113 166-116 311h42a42 42 0 0 1 0 84h-24a165 165 0 0 1 24 83c0 57-49 155-79 203a104 104 0 0 1-176 0c-30-48-79-146-79-203a165 165 0 0 1 24-83h-24a42 42 0 0 1 0-84h42c-3-145-35-234-116-311a168 168 0 0 1-51-120v-69h-41a42 42 0 0 1 0-83h666a42 42 0 0 1 0 83z m-350 825a21 21 0 0 0 35 0 448 448 0 0 0 65-158 83 83 0 1 0-166 0 449 449 0 0 0 66 158z m59-325c3-146 34-248 105-333h-294c72 85 103 187 105 333z m-250-431a79 79 0 0 0 1 15h414a83 83 0 0 0 1-15v-69h-416z" horiz-adv-x="1000" />

<glyph glyph-name="fi-rr-circle" unicode="&#xe852;" d="M500 850a500 500 0 1 1 500-500 501 501 0 0 1-500 500z m0-917a417 417 0 1 0 417 417 417 417 0 0 0-417-417z" horiz-adv-x="1000" />

<glyph glyph-name="fi-rr-circle-small" unicode="&#xe853;" d="M500 642a292 292 0 1 1 292-292 292 292 0 0 1-292 292z m0-500a208 208 0 1 0 208 208 209 209 0 0 0-208-208z" horiz-adv-x="1000" />

<glyph glyph-name="fi-rr-clip" unicode="&#xe854;" d="M956 450a42 42 0 0 1-59 0l-453-456a208 208 0 1 0-295 295l439 441a125 125 0 0 0 177-177l-439-441a43 43 0 0 0-59 0 42 42 0 0 0 0 59l391 393a42 42 0 0 1-59 59l-391-393a125 125 0 0 1 0-177 128 128 0 0 1 177 0l439 442a208 208 0 0 1-294 294l-440-441a292 292 0 0 1 412-413l454 456a42 42 0 0 1 0 59z" horiz-adv-x="1000" />

<glyph glyph-name="fi-rr-clock" unicode="&#xe855;" d="M500 850a500 500 0 1 1 500-500 501 501 0 0 1-500 500z m0-917a417 417 0 1 0 417 417 417 417 0 0 0-417-417z m0 667a42 42 0 0 1-42-42v-180l-140-88a42 42 0 0 1 44-71l160 100a42 42 0 0 1 20 36v203a42 42 0 0 1-42 42z" horiz-adv-x="1000" />

<glyph glyph-name="fi-rr-database" unicode="&#xe856;" d="M1000 371a187 187 0 0 1-71 146 187 187 0 0 1-116 333h-625a187 187 0 0 1-117-333 185 185 0 0 1 0-292 187 187 0 0 1 117-333h625a187 187 0 0 1 116 333 187 187 0 0 1 71 146z m-917 292a104 104 0 0 0 105 104h20v-42a42 42 0 0 1 84 0v42h83v-42a42 42 0 0 1 83 0v42h355a104 104 0 0 0 0-209h-625a104 104 0 0 0-105 105z m834-584a104 104 0 0 0-104-104h-625a104 104 0 0 0 0 208h20v-41a42 42 0 0 1 84 0v41h83v-41a42 42 0 0 1 83 0v41h355a104 104 0 0 0 104-104z m-729 188a104 104 0 0 0 0 208h20v-42a42 42 0 0 1 84 0v42h83v-42a42 42 0 0 1 83 0v42h355a104 104 0 0 0 0-208z" horiz-adv-x="1000" />

<glyph glyph-name="fi-rr-data-transfer" unicode="&#xe857;" d="M333 850h-166a167 167 0 0 1-167-167v-41a167 167 0 0 1 167-167h41v-83h-83a42 42 0 0 1 0-84h250a42 42 0 0 1 0 84h-83v83h41a167 167 0 0 1 167 167v41a167 167 0 0 1-167 167z m84-208a83 83 0 0 0-84-84h-166a83 83 0 0 0-84 84v41a83 83 0 0 0 84 84h166a83 83 0 0 0 84-84z m416-250h-83a167 167 0 0 1-167-167v-208a167 167 0 0 1 167-167h83a167 167 0 0 1 167 167v208a167 167 0 0 1-167 167z m84-375a83 83 0 0 0-84-84h-83a83 83 0 0 0-83 84v208a83 83 0 0 0 83 83h83a83 83 0 0 0 84-83z m-334 666a42 42 0 0 0 42 42h83a125 125 0 0 0 125-125v-83a42 42 0 0 0-83 0v83a42 42 0 0 1-42 42h-83a42 42 0 0 0-42 41z m-83-666a42 42 0 0 0-42-42h-125a125 125 0 0 0-125 125v83a42 42 0 0 0 84 0v-83a42 42 0 0 1 41-42h125a42 42 0 0 0 42-41z m333 0a42 42 0 1 0-41 41 42 42 0 0 0 41-41z" horiz-adv-x="1000" />

<glyph glyph-name="fi-rr-delete" unicode="&#xe858;" d="M792 767h-377a207 207 0 0 1-165-81l-241-310a42 42 0 0 1 0-52l241-310a207 207 0 0 1 165-81h377a209 209 0 0 1 208 209v416a209 209 0 0 1-208 209z m125-625a125 125 0 0 0-125-125h-377a124 124 0 0 0-99 48l-221 285 221 285a124 124 0 0 0 99 48h377a125 125 0 0 0 125-125z m-200 283l-75-75 75-75a42 42 0 1 0-59-59l-75 75-74-75a42 42 0 0 0-59 59l74 75-74 75a42 42 0 0 0 59 59l74-75 75 75a42 42 0 0 0 59-59z" horiz-adv-x="1000" />

<glyph glyph-name="fi-rr-diamond" unicode="&#xe859;" d="M968 611l-126 169a167 167 0 0 1-135 70h-413a167 167 0 0 1-136-69l-127-171a166 166 0 0 1 5-199l366-514a124 124 0 0 1 98-47h0a125 125 0 0 1 99 49l364 508a167 167 0 0 1 5 204z m-193 120l125-170c1-1 1-2 2-3h-204l-59 209h68a84 84 0 0 0 68-36z m-275-678l-112 422h225z m-111 505l59 209h104l59-209z m-163 174a84 84 0 0 0 68 35h67l-59-209h-205c0 1 0 2 1 3z m-124-270a79 79 0 0 0-8 13h207l125-468z m472-455l125 468h208a88 88 0 0 0-11-17z" horiz-adv-x="1000" />

<glyph glyph-name="fi-rr-dice" unicode="&#xe85a;" d="M792-150h-584a209 209 0 0 0-208 208v584a209 209 0 0 0 208 208h584a209 209 0 0 0 208-208v-584a209 209 0 0 0-208-208z m-584 917a125 125 0 0 1-125-125v-584a125 125 0 0 1 125-125h584a125 125 0 0 1 125 125v584a125 125 0 0 1-125 125z m250-417a42 42 0 1 1 42 42 42 42 0 0 1-42-42z m-208 208a42 42 0 1 1 42 42 42 42 0 0 1-42-42z m417 0a42 42 0 1 1 41 42 42 42 0 0 1-41-42z m-417-416a42 42 0 1 1 42 41 42 42 0 0 1-42-41z m417 0a42 42 0 1 1 41 41 42 42 0 0 1-41-41z" horiz-adv-x="1000" />

<glyph glyph-name="fi-rr-diploma" unicode="&#xe85b;" d="M458 350a42 42 0 0 0 0-83h-125a42 42 0 0 0 0 83z m250 125a42 42 0 0 1-41 42h-334a42 42 0 0 1 0-84h334a42 42 0 0 1 41 42z m-375 125h334a42 42 0 0 1 0 83h-334a42 42 0 0 1 0-83z m500-560v-160a30 30 0 0 0-51-21l-32 32-32-32a30 30 0 0 0-51 21v160a166 166 0 0 0 83 310 164 164 0 0 0 42-6v298a125 125 0 0 1-125 125h-334a125 125 0 0 1-125-125v-500a125 125 0 0 1 125-125h209a42 42 0 0 0 0-84h-209a209 209 0 0 0-208 209v500a209 209 0 0 0 208 208h334a209 209 0 0 0 208-208v-350a165 165 0 0 0-42-252z m0 143a83 83 0 1 1-83-83 83 83 0 0 1 83 83z" horiz-adv-x="1000" />

<glyph glyph-name="fi-rr-disk" unicode="&#xe85c;" d="M500 433a167 167 0 1 1 167-166 167 167 0 0 1-167 166z m0-250a83 83 0 1 0 83 84 83 83 0 0 0-83-84z m439 495l-111 111a207 207 0 0 1-147 61h-473a209 209 0 0 1-208-208v-584a209 209 0 0 1 208-208h584a209 209 0 0 1 208 208v473a207 207 0 0 1-61 147z m-231 85v-38a125 125 0 0 0-125-125h-166a125 125 0 0 0-125 125v42h389a123 123 0 0 0 27-4z m209-705a125 125 0 0 0-125-125h-584a125 125 0 0 0-125 125v584a125 125 0 0 0 125 125v-42a209 209 0 0 1 209-208h166a208 208 0 0 1 207 192l90-90a126 126 0 0 0 37-88z" horiz-adv-x="1000" />

<glyph glyph-name="fi-rr-document" unicode="&#xe85d;" d="M708 267a42 42 0 0 0-41-42h-334a42 42 0 0 0 0 83h334a42 42 0 0 0 41-41z m-166-125h-209a42 42 0 0 1 0-84h209a42 42 0 0 1 0 84z m375 271v-355a209 209 0 0 0-209-208h-416a209 209 0 0 0-209 208v584a209 209 0 0 0 209 208h188a290 290 0 0 0 206-85l145-146a290 290 0 0 0 86-206z m-290 293a209 209 0 0 1-44 32v-180a42 42 0 0 1 42-41h180a208 208 0 0 1-33 43z m206-293c0 7-1 14-2 20h-206a125 125 0 0 0-125 125v207c-7 0-13 2-20 2h-188a125 125 0 0 1-125-125v-584a125 125 0 0 1 125-125h416a125 125 0 0 1 125 125z" horiz-adv-x="1000" />

<glyph glyph-name="fi-rr-doctor" unicode="&#xe85e;" d="M792 642h-125v41a125 125 0 0 1-125 125h-84a125 125 0 0 1-125-125v-41h-125a209 209 0 0 1-208-209v-333a209 209 0 0 1 208-208h584a209 209 0 0 1 208 208v333a209 209 0 0 1-208 209z m-375 41a42 42 0 0 0 41 42h84a42 42 0 0 0 41-42v-41h-166z m500-583a125 125 0 0 0-125-125h-584a125 125 0 0 0-125 125v333a125 125 0 0 0 125 125h584a125 125 0 0 0 125-125z m-250 167a42 42 0 0 0-42-42h-83v-83a42 42 0 0 0-84 0v83h-83a42 42 0 0 0 0 83h83v84a42 42 0 0 0 84 0v-84h83a42 42 0 0 0 42-41z" horiz-adv-x="1000" />

<glyph glyph-name="fi-rr-document-signed" unicode="&#xe85f;" d="M814 720l-69 69a207 207 0 0 1-147 61h-265a209 209 0 0 1-208-208v-584a209 209 0 0 1 208-208h334a209 209 0 0 1 208 208v515a207 207 0 0 1-61 147z m-59-59a122 122 0 0 0 16-19h-104v104a129 129 0 0 0 19-16z m37-603a125 125 0 0 0-125-125h-334a125 125 0 0 0-125 125v584a125 125 0 0 0 125 125h250v-125a83 83 0 0 1 84-84h125z m-125 417a42 42 0 0 0 0-83h-334a42 42 0 0 0 0 83z m41-208a42 42 0 0 0-41-42h-334a42 42 0 0 0 0 83h334a42 42 0 0 0 41-41z m-8-142a42 42 0 0 0-9-59 269 269 0 0 0-144-49 136 136 0 0 0-83 29c-14 9-19 12-29 12a165 165 0 0 1-76-33 42 42 0 0 0-51 66 244 244 0 0 0 127 51 126 126 0 0 0 76-28 56 56 0 0 1 36-14 191 191 0 0 1 95 34 42 42 0 0 0 58-9z" horiz-adv-x="1000" />

<glyph glyph-name="fi-rr-dollar" unicode="&#xe860;" d="M581 683a128 128 0 0 0 127-127 42 42 0 0 1 84 0v2c0 1 0 2 0 3a211 211 0 0 1-211 206h-39v41a42 42 0 0 1-84 0v-41h-38a211 211 0 0 1-67-412l105-35v-303h-38a128 128 0 0 0-128 128 42 42 0 0 1-84 0v-3c0-1 0-2 0-3a211 211 0 0 1 212-206h38v-41a42 42 0 0 1 84 0v41h39a211 211 0 0 1 66 412l-105 35v303z m40-417a128 128 0 0 0-40-249h-39v275z m-163 142l-79 26a128 128 0 0 0 41 249h38z" horiz-adv-x="1000" />

<glyph glyph-name="fi-rr-download" unicode="&#xe861;" d="M958 183h0a42 42 0 0 1-41-41v-167a42 42 0 0 0-42-42h-750a42 42 0 0 0-42 42v167a42 42 0 0 1-41 41h0a42 42 0 0 1-42-41v-167a125 125 0 0 1 125-125h750a125 125 0 0 1 125 125v167a42 42 0 0 1-42 41z m-737 103l191-191a125 125 0 0 1 176 0l192 191a42 42 0 1 1-59 59l-179-179v642a42 42 0 0 1-84 0v-642l-178 179a42 42 0 1 1-59-59z" horiz-adv-x="1000" />

<glyph glyph-name="fi-rr-duplicate" unicode="&#xe862;" d="M882 714l-96 98a126 126 0 0 1-89 38h-197a209 209 0 0 1-204-167h-4a209 209 0 0 1-209-208v-417a209 209 0 0 1 209-208h250a209 209 0 0 1 208 208v5a209 209 0 0 1 167 204v360a125 125 0 0 1-35 87z m-340-781h-250a125 125 0 0 0-125 125v417a125 125 0 0 0 125 125v-333a209 209 0 0 1 208-209h167a125 125 0 0 0-125-125z m166 209h-208a125 125 0 0 0-125 125v375a125 125 0 0 0 125 125h167v-84a83 83 0 0 1 83-83h83v-333a125 125 0 0 0-125-125z" horiz-adv-x="1000" />

<glyph glyph-name="fi-rr-earnings" unicode="&#xe863;" d="M792 850h-209a42 42 0 0 1 0-83h209a123 123 0 0 0 53-13l-833-833a42 42 0 1 1 59-59l833 833a123 123 0 0 0 13-53v-209a42 42 0 0 1 83 0v209a209 209 0 0 1-208 208z m-542-417a167 167 0 1 1-167 167 167 167 0 0 1 167-167z m0 250a83 83 0 1 0-83-83 83 83 0 0 0 83 83z m500-416a167 167 0 1 1 167-167 167 167 0 0 1-167 167z m0-250a83 83 0 1 0 83 83 83 83 0 0 0-83-83z" horiz-adv-x="1000" />

<glyph glyph-name="fi-rr-edit" unicode="&#xe864;" d="M777 811l-508-508a207 207 0 0 1-61-147v-56a42 42 0 0 1 42-42h56a207 207 0 0 1 147 61l508 508a130 130 0 0 1 0 184 133 133 0 0 1-184 0z m125-125l-508-508a126 126 0 0 0-88-36h-14v14a126 126 0 0 0 36 88l508 508a48 48 0 0 0 66 0 47 47 0 0 0 0-66z m56-210a42 42 0 0 1-41-42v-209h-167a125 125 0 0 1-125-125v-167h-417a125 125 0 0 0-125 125v584a125 125 0 0 0 125 125h377a42 42 0 0 1 0 83h-377a209 209 0 0 1-208-208v-584a209 209 0 0 1 208-208h473a207 207 0 0 1 147 61l111 111a207 207 0 0 1 61 147v265a42 42 0 0 1-42 42z m-189-506a124 124 0 0 0-61-33v163a42 42 0 0 0 42 42h164a126 126 0 0 0-34-61z" horiz-adv-x="1000" />

<glyph glyph-name="fi-rr-edit-alt" unicode="&#xe865;" d="M387 306c-96-19-144-126-165-193a42 42 0 0 1 40-55h155a125 125 0 0 1 124 137 130 130 0 0 1-154 111z m571 170a42 42 0 0 1-41-42v-209h-167a125 125 0 0 1-125-125v-167h-417a125 125 0 0 0-125 125v584a125 125 0 0 0 125 125h460a42 42 0 0 1 0 83h-460a209 209 0 0 1-208-208v-584a209 209 0 0 1 208-208h473a207 207 0 0 1 147 61l111 111a207 207 0 0 1 61 147v265a42 42 0 0 1-42 42z m-189-506a126 126 0 0 0-61-33v163a42 42 0 0 0 42 42h164a126 126 0 0 0-34-61z m-162 290a42 42 0 0 0-29 71l327 327a39 39 0 0 1 0 56 38 38 0 0 1-29 11 39 39 0 0 1-28-13l-317-350a42 42 0 0 0-62 56l317 350a123 123 0 0 0 88 40 124 124 0 0 0 90-36 123 123 0 0 0 0-173l-328-327a41 41 0 0 0-29-12z" horiz-adv-x="1000" />

<glyph glyph-name="fi-rr-e-learning" unicode="&#xe866;" d="M829 721a167 167 0 0 1-208 123l-72-21a124 124 0 0 1-49-27 124 124 0 0 1-49 27l-72 21a167 167 0 0 1-208-123 208 208 0 0 1-171-204v-292a209 209 0 0 1 208-208h250v-84h-125a42 42 0 0 1 0-83h334a42 42 0 0 1 0 83h-125v84h250a209 209 0 0 1 208 208v292a208 208 0 0 1-171 204z m-287-18a42 42 0 0 0 30 40l72 21a83 83 0 0 0 106-81v-164a84 84 0 0 0-60-80l-148-42z m-259 47a83 83 0 0 0 73 14l72-21a42 42 0 0 0 30-40v-306l-148 42a84 84 0 0 0-60 80v164a83 83 0 0 0 33 67z m634-525a125 125 0 0 0-125-125h-584a125 125 0 0 0-125 125v292a125 125 0 0 0 84 117v-115a167 167 0 0 1 121-160l143-41a251 251 0 0 1 138 0l144 41a167 167 0 0 1 120 160v115a125 125 0 0 0 84-117z" horiz-adv-x="1000" />

<glyph glyph-name="fi-rr-envelope" unicode="&#xe867;" d="M792 808h-584a209 209 0 0 1-208-208v-500a209 209 0 0 1 208-208h584a209 209 0 0 1 208 208v500a209 209 0 0 1-208 208z m-584-83h584a125 125 0 0 0 116-79l-320-319a125 125 0 0 0-176 0l-319 319a125 125 0 0 0 115 79z m584-750h-584a125 125 0 0 0-125 125v438l270-270a209 209 0 0 1 294 0l270 270v-438a125 125 0 0 0-125-125z" horiz-adv-x="1000" />

<glyph glyph-name="fi-rr-copy-alt" unicode="&#xe868;" d="M542 17a209 209 0 0 1 208 208v365a166 166 0 0 1-49 118l-93 93a166 166 0 0 1-118 49h-198a209 209 0 0 1-209-208v-417a209 209 0 0 1 209-208z m-375 208v417a125 125 0 0 0 125 125s205-1 208-1v-83a83 83 0 0 1 83-83h83c0-3 1-375 1-375a125 125 0 0 0-125-125h-250a125 125 0 0 0-125 125z m750 292v-459a209 209 0 0 0-209-208h-375a42 42 0 0 0 0 83h375a125 125 0 0 1 125 125v459a42 42 0 0 0 84 0z" horiz-adv-x="1000" />

<glyph glyph-name="fi-rr-copyright" unicode="&#xe869;" d="M500 850a500 500 0 1 1 500-500 501 501 0 0 1-500 500z m0-917a417 417 0 1 0 417 417 417 417 0 0 0-417-417z m147 564a42 42 0 0 1 59 59 292 292 0 1 1 0-412 42 42 0 0 1-59 59 208 208 0 1 0 0 294z" horiz-adv-x="1000" />

<glyph glyph-name="fi-rr-cream" unicode="&#xe86a;" d="M917 342v50a125 125 0 0 1-84 117 602 602 0 0 1-77 307 81 81 0 0 1-71 34 85 85 0 0 1-70-44c-32-59-63-81-117-81h-81a237 237 0 0 1-248-215 125 125 0 0 1-86-118v-50a125 125 0 0 1-83-117v-167a209 209 0 0 1 208-208h584a209 209 0 0 1 208 208v167a125 125 0 0 1-83 117z m-500 300h81a206 206 0 0 1 191 126 517 517 0 0 0 61-251h-494a152 152 0 0 0 161 125z m-250-250a42 42 0 0 0 41 41h584a42 42 0 0 0 41-41v-42h-666z m750-334a125 125 0 0 0-125-125h-584a125 125 0 0 0-125 125v167a42 42 0 0 0 42 42h750a42 42 0 0 0 42-42z" horiz-adv-x="1000" />

<glyph glyph-name="fi-rr-credit-card" unicode="&#xe86b;" d="M792 725h-584c-116 0-208-92-208-208v-334c0-116 92-208 208-208h584c116 0 208 92 208 208v334c0 116-92 208-208 208z m-584-83h584c71 0 125-54 125-125h-834c0 71 55 125 125 125z m584-584h-584c-70 0-125 55-125 125v250h834v-250c0-70-54-125-125-125z" horiz-adv-x="1000" />

<glyph glyph-name="fi-rr-cross" unicode="&#xe86c;" d="M988 838h0a42 42 0 0 1-59 0l-429-429-429 429a42 42 0 0 1-59 0h0a42 42 0 0 1 0-59l429-429-429-429a42 42 0 0 1 0-59h0a42 42 0 0 1 59 0l429 429 429-429a42 42 0 0 1 59 0h0a42 42 0 0 1 0 59l-429 429 429 429a42 42 0 0 1 0 59z" horiz-adv-x="1000" />

<glyph glyph-name="fi-rr-cross-circle" unicode="&#xe86d;" d="M667 517a42 42 0 0 1-59 0l-108-108-108 108a42 42 0 0 1-59-59l108-108-108-108a42 42 0 0 1 59-59l108 108 108-108a42 42 0 0 1 59 59l-108 108 108 108a42 42 0 0 1 0 59z m-167 333a500 500 0 1 1 500-500 501 501 0 0 1-500 500z m0-917a417 417 0 1 0 417 417 417 417 0 0 0-417-417z" horiz-adv-x="1000" />

<glyph glyph-name="fi-rr-crown" unicode="&#xe86e;" d="M949 660a83 83 0 0 1-91-18l-108-108-191 191a83 83 0 0 1-118 0l-191-191-108 108a83 83 0 0 1-142-59v-441a209 209 0 0 1 208-209h584a209 209 0 0 1 208 209v441a83 83 0 0 1-51 77z m-32-518a125 125 0 0 0-125-125h-584a125 125 0 0 0-125 125v441l138-137a42 42 0 0 1 59 0l220 220 221-220a42 42 0 0 1 59 0l137 137z" horiz-adv-x="1000" />

<glyph glyph-name="fi-rr-cross-small" unicode="&#xe86f;" d="M750 600h0a42 42 0 0 1-59 0l-191-191-191 191a42 42 0 0 1-59 0h0a42 42 0 0 1 0-59l191-191-191-191a42 42 0 0 1 0-59h0a42 42 0 0 1 59 0l191 191 191-191a42 42 0 0 1 59 0h0a42 42 0 0 1 0 59l-191 191 191 191a42 42 0 0 1 0 59z" horiz-adv-x="1000" />

<glyph glyph-name="fi-rr-cursor" unicode="&#xe870;" d="M625-150a125 125 0 0 0-111 68l-131 280-147-129a42 42 0 0 0-69 31v626a125 125 0 0 0 208 93l445-426a42 42 0 0 0-25-72l-186-17 128-273a125 125 0 0 0-112-181z m-227 457a43 43 0 0 0 8-1 42 42 0 0 0 29-23l154-328a42 42 0 0 1 73 39l-153 329a42 42 0 0 0 34 59l154 14-379 362a41 41 0 0 1-43 6 41 41 0 0 1-25-38v-534l120 105a42 42 0 0 0 28 10z" horiz-adv-x="1000" />

<glyph glyph-name="fi-rr-cursor-finger" unicode="&#xe871;" d="M749 459l-249 50v212a128 128 0 0 1-104 127 125 125 0 0 1-146-123v-277l-116-152a209 209 0 0 1 10-283l100-101a210 210 0 0 1 148-62h316a209 209 0 0 1 209 208v197a209 209 0 0 1-168 204z m84-401a125 125 0 0 0-125-125h-316a126 126 0 0 0-89 37l-100 102a126 126 0 0 0-4 171l51 68v-169a42 42 0 0 1 83 0v583a42 42 0 0 0 49 41 45 45 0 0 0 35-45v-246a42 42 0 0 1 33-41l283-56a125 125 0 0 0 100-123z" horiz-adv-x="1000" />

<glyph glyph-name="fi-rr-cursor-plus" unicode="&#xe872;" d="M667 517a333 333 0 1 1 333-334 334 334 0 0 1-333 334z m0-584a250 250 0 1 0 250 250 250 250 0 0 0-250-250z m166 250a42 42 0 0 0-41-41h-84v-84a42 42 0 0 0-83 0v84h-83a42 42 0 0 0 0 83h83v83a42 42 0 0 0 83 0v-83h84a42 42 0 0 0 41-42z m-333 460a42 42 0 0 1-24 37l-362 164a37 37 0 0 1-4 2 83 83 0 0 1-85-20 84 84 0 0 1-19-90l164-362a42 42 0 0 1 38-24h0a42 42 0 0 1 38 23l77 154 154 77a42 42 0 0 1 23 39z m-227-47a42 42 0 0 1-19-19l-44-89-127 279 279-127z" horiz-adv-x="1000" />

<glyph glyph-name="fi-rr-cursor-text" unicode="&#xe873;" d="M750-67h-83a125 125 0 0 0-125 125v125h125a42 42 0 0 1 0 84h-125v375a125 125 0 0 0 125 125h83a42 42 0 0 1 0 83h-83a208 208 0 0 1-167-85 208 208 0 0 1-167 85h-83a42 42 0 0 1 0-83h83a125 125 0 0 0 125-125v-375h-125a42 42 0 0 1 0-84h125v-125a125 125 0 0 0-125-125h-83a42 42 0 0 1 0-83h83a208 208 0 0 1 167 85 208 208 0 0 1 167-85h83a42 42 0 0 1 0 83z" horiz-adv-x="1000" />

<glyph glyph-name="fi-rr-cursor-text-alt" unicode="&#xe874;" d="M917 127v446a146 146 0 1 1-194 194h-446a146 146 0 1 1-194-194v-446a146 146 0 1 1 194-194h446a146 146 0 1 1 194 194z m-206-110h-421a145 145 0 0 1-123 123v421a145 145 0 0 1 123 122h420a145 145 0 0 1 123-122v-421a145 145 0 0 1-122-123z m143 750a63 63 0 1 0-62-63 63 63 0 0 0 62 63z m-708 0a63 63 0 1 0-63-63 63 63 0 0 0 63 63z m0-834a63 63 0 1 0 62 63 63 63 0 0 0-62-63z m708 0a63 63 0 1 0 63 63 63 63 0 0 0-63-63z m-312 542v-125h41a42 42 0 0 0 0-83h-41v-42a42 42 0 0 1 41-42 42 42 0 0 0 0-83 124 124 0 0 0-83 33 124 124 0 0 0-83-33 42 42 0 0 0 0 83 42 42 0 0 1 41 42v42h-41a42 42 0 0 0 0 83h41v125a42 42 0 0 1-41 42 42 42 0 0 0 0 83 124 124 0 0 0 83-32 124 124 0 0 0 83 32 42 42 0 0 0 0-83 42 42 0 0 1-41-42z" horiz-adv-x="1000" />

<glyph glyph-name="fi-rr-dart" unicode="&#xe875;" d="M833 850h-73a166 166 0 0 1-118-49l-135-135a168 168 0 0 1-49-118v-144c-136-101-315-235-338-257a125 125 0 0 1-24-142l-84-84a42 42 0 0 1 0-59h0a42 42 0 0 1 59 0l84 84a124 124 0 0 1 142 24c22 22 156 202 257 338h144a166 166 0 0 1 118 49l135 135a168 168 0 0 1 49 118v73a167 167 0 0 1-167 167z m-595-821a43 43 0 0 0-59 0 42 42 0 0 0 0 59c14 14 125 97 248 189-92-123-175-234-189-248z m679 581a84 84 0 0 0-25-59l-135-135a83 83 0 0 0-59-24h-82l41 56 164 164a42 42 0 1 1-59 59l-164-164-56-41v82a84 84 0 0 0 24 59l135 135a83 83 0 0 0 59 25h73a83 83 0 0 0 84-84z" horiz-adv-x="1000" />

<glyph glyph-name="fi-rr-dashboard" unicode="&#xe876;" d="M996 374a500 500 0 0 1-996-66 495 495 0 0 1 157-363 202 202 0 0 1 139-53h407a208 208 0 0 1 147 59 498 498 0 0 1 146 423z m-205-363a125 125 0 0 0-88-36h-407a119 119 0 0 0-82 31 413 413 0 0 0-131 302 417 417 0 0 0 139 311 412 412 0 0 0 277 106 440 440 0 0 0 49-3 416 416 0 0 0 243-711z m-466 119a42 42 0 0 0-58-60 333 333 0 0 0 233 572 336 336 0 0 0 48-4 42 42 0 0 0 35-47 41 41 0 0 0-47-35 250 250 0 0 1-211-426z m505 226a336 336 0 0 0 3-48 331 331 0 0 0-100-238 42 42 0 0 0-58 60 249 249 0 0 1 72 214 42 42 0 0 0 83 12z m-250-26a85 85 0 1 0-59 59l158 157a42 42 0 1 0 59-59z" horiz-adv-x="1000" />

<glyph glyph-name="fi-rr-film" unicode="&#xe877;" d="M792 850h-584a209 209 0 0 1-208-208v-584a209 209 0 0 1 208-208h584a209 209 0 0 1 208 208v584a209 209 0 0 1-208 208z m41-458h84v-84h-84z m0 83v83h84v-83z m-83-83h-500v375h500z m-583-84h-84v84h84z m0 167h-84v83h84z m-84-250h84v-83h-84z m167 83h500v-375h-500z m583-83h84v-83h-84z m84 417h-84v117a125 125 0 0 0 84-117z m-750 117v-117h-84a125 125 0 0 0 84 117z m-84-701h84v-117a125 125 0 0 0-84 117z m750-117v117h84a125 125 0 0 0-84-117z" horiz-adv-x="1000" />

<glyph glyph-name="fi-rr-filter" unicode="&#xe878;" d="M583-150a42 42 0 0 0-25 8l-166 125a42 42 0 0 0-17 34v234l-292 329a163 163 0 0 0 121 270h592a163 163 0 0 0 121-270l-292-329v-359a42 42 0 0 0-42-42z m-125 188l84-63v292a42 42 0 0 0 10 27l303 341a79 79 0 0 1-59 132h-592a79 79 0 0 1-59-132l303-341a42 42 0 0 0 10-27z" horiz-adv-x="1000" />

<glyph glyph-name="fi-rr-fingerprint" unicode="&#xe879;" d="M249-79a42 42 0 0 0-22 78c148 89 148 279 148 393a125 125 0 0 0 250 0 42 42 0 0 0-83 0 42 42 0 0 1-84 0c0-123 0-352-188-465a42 42 0 0 0-21-6z m207-59c95 96 150 231 165 401a42 42 0 0 1-38 45 41 41 0 0 1-45-38c-13-152-59-266-141-349a42 42 0 0 1 59-59z m216 8a741 741 0 0 1 63 133 42 42 0 0 1-78 28 661 661 0 0 0-56-118 42 42 0 0 1 71-43z m99 264a1311 1311 0 0 1 21 258 292 292 0 0 1-509 194 42 42 0 1 1 62-55 208 208 0 0 0 363-139 1237 1237 0 0 0-19-242 42 42 0 0 1 33-49 41 41 0 0 1 8-1 42 42 0 0 1 41 34z m-479 258a208 208 0 0 0 3 34 42 42 0 1 1-82 14 291 291 0 0 1-5-48c0-194-56-292-166-292a42 42 0 0 1 0-83c161 0 250 133 250 375z m571-518a1240 1240 0 0 1 95 518 453 453 0 0 1-45 199 42 42 0 1 1-75-36 371 371 0 0 0 37-163 1163 1163 0 0 0-88-483 42 42 0 0 1 21-55 41 41 0 0 1 17-4 42 42 0 0 1 38 24z m-738 393v125a375 375 0 0 0 375 375 371 371 0 0 0 225-75 42 42 0 0 1 50 66 454 454 0 0 1-275 92 459 459 0 0 1-458-458v-125a42 42 0 0 1 83 0z" horiz-adv-x="1000" />

<glyph glyph-name="fi-rr-flag" unicode="&#xe87a;" d="M833 683h-208a167 167 0 0 1-167 167h-291a167 167 0 0 1-167-167v-791a42 42 0 0 1 83 0v416h334a167 167 0 0 1 166-166h250a167 167 0 0 1 167 166v209a167 167 0 0 1-167 166z m-750-291v291a83 83 0 0 0 84 84h291a83 83 0 0 0 84-84v-208a83 83 0 0 0-84-83z m834-84a83 83 0 0 0-84-83h-250a83 83 0 0 0-83 83v6a167 167 0 0 1 125 161v125h208a83 83 0 0 0 84-83z" horiz-adv-x="1000" />

<glyph glyph-name="fi-rr-flame" unicode="&#xe87b;" d="M693 729c-33 28-67 57-102 89a123 123 0 0 1-99 31 119 119 0 0 1-85-54 849 849 0 0 1-104-269 255 255 0 0 0-20 34 83 83 0 0 1-137 20 378 378 0 0 1-108-268 458 458 0 0 1 343-447 486 486 0 0 1 115-15c2 0 3 0 4 0 6 0 11 0 16 1a461 461 0 0 1 446 461c0 189-125 295-269 417z m-183-795c-5 0-10 0-15 0a154 154 0 0 0-84 33 153 153 0 0 0-66 107c-7 68 34 156 119 256h0a47 47 0 0 0 36 16h0a45 45 0 0 0 35-16c78-93 121-178 121-241a156 156 0 0 0-146-155z m222 79c-2-2-5-3-7-5a238 238 0 0 1 14 82c0 105-76 218-140 294a129 129 0 0 1-99 46h0a130 130 0 0 1-99-46h0c-102-119-149-226-139-319a216 216 0 0 1 16-62 379 379 0 0 0-156 309 294 294 0 0 0 86 212 340 340 0 0 1 35-57 77 77 0 0 1 79-29 79 79 0 0 1 61 61 777 777 0 0 0 94 251 35 35 0 0 0 26 16 40 40 0 0 0 32-10c35-32 71-62 104-90 139-119 240-204 240-354a376 376 0 0 0-146-299z" horiz-adv-x="1000" />

<glyph glyph-name="fi-rr-flip-horizontal" unicode="&#xe87c;" d="M425 847h0a42 42 0 0 1-47-23l-362-797a125 125 0 0 1 113-177h288a42 42 0 0 1 41 42v914a42 42 0 0 1-33 41z m-50-914h-246a42 42 0 0 0-37 59l283 624z m609 94l-362 797a43 43 0 0 1-48 23 42 42 0 0 1-32-41v-914a42 42 0 0 1 41-42h288a125 125 0 0 1 113 177z" horiz-adv-x="1000" />

<glyph glyph-name="fi-rr-folder" unicode="&#xe87d;" d="M792 725h-272a43 43 0 0 0-19 4l-131 66a126 126 0 0 1-56 13h-106a209 209 0 0 1-208-208v-500a209 209 0 0 1 208-208h584a209 209 0 0 1 208 208v417a209 209 0 0 1-208 208z m-584 0h106a43 43 0 0 0 18-4l132-66a126 126 0 0 1 56-13h272a125 125 0 0 0 116-79l-825-4v41a125 125 0 0 0 125 125z m584-750h-584a125 125 0 0 0-125 125v375l834 5v-380a125 125 0 0 0-125-125z" horiz-adv-x="1000" />

<glyph glyph-name="fi-rr-folder-add" unicode="&#xe87e;" d="M667 225a42 42 0 0 0-42-42h-83v-83a42 42 0 0 0-84 0v83h-83a42 42 0 0 0 0 84h83v83a42 42 0 0 0 84 0v-83h83a42 42 0 0 0 42-42z m333 292v-417a209 209 0 0 0-208-208h-584a209 209 0 0 0-208 208v500a209 209 0 0 0 208 208h106a126 126 0 0 0 56-13l131-66a42 42 0 0 1 19-4h272a209 209 0 0 0 208-208z m-917 83v-42h826a125 125 0 0 1-117 84h-272a126 126 0 0 0-56 13l-132 66a42 42 0 0 1-18 4h-106a125 125 0 0 1-125-125z m834-500v375h-834v-375a125 125 0 0 1 125-125h584a125 125 0 0 1 125 125z" horiz-adv-x="1000" />

<glyph glyph-name="fi-rr-following" unicode="&#xe87f;" d="M375 350a250 250 0 1 1-250 250 250 250 0 0 1 250-250z m0 417a167 167 0 1 0-167-167 167 167 0 0 0 167 167z m0-500a376 376 0 0 1-375-375 42 42 0 0 1 83 0 292 292 0 0 0 584 0 42 42 0 0 1 83 0 376 376 0 0 1-375 375z m542 255a88 88 0 0 1-84-92 88 88 0 0 1-83 92 88 88 0 0 1-83-92c0-72 94-156 141-194a41 41 0 0 1 51 0c47 38 141 122 141 194a88 88 0 0 1-83 92z" horiz-adv-x="1000" />

<glyph glyph-name="fi-rr-football" unicode="&#xe880;" d="M649 255l30 94a104 104 0 0 1-38 117l-80 58a104 104 0 0 1-122 0h0l-80-58a104 104 0 0 1-38-117l31-94a104 104 0 0 1 99-72h98a104 104 0 0 1 100 72z m-218 26l-31 94a21 21 0 0 0 8 23l80 58a21 21 0 0 0 24 0l80-58a21 21 0 0 0 8-23l-31-94a21 21 0 0 0-20-14h-98a21 21 0 0 0-20 14z m565 6a492 492 0 0 1-143 417l-1 0a499 499 0 0 1-704 0l0 0a499 499 0 0 1-148-354 505 505 0 0 1 4-63c1-1 1-2 1-3a495 495 0 0 1 48-156 34 34 0 0 1 2-4 501 501 0 0 1 358-266 43 43 0 0 1 7-1h0a496 496 0 0 1 575 427c0 1 1 2 1 3z m-185 195l32 104a414 414 0 0 0 73-213l-90 62a42 42 0 0 0-15 47z m-203 270l-83-61a42 42 0 0 0-49 0l-84 61a404 404 0 0 0 216 0z m-418-270a42 42 0 0 0-16-47l-89-62a414 414 0 0 0 72 213z m-23-381l114-1a42 42 0 0 0 40-29l36-112a418 418 0 0 0-190 142z m285-165l-52 161a125 125 0 0 1-118 87l-164 0a413 413 0 0 0-27 91l131 92a125 125 0 0 1 47 139l-47 153a416 416 0 0 0 78 57l127-92a125 125 0 0 1 147 0l126 92a418 418 0 0 0 78-57l-47-153a125 125 0 0 1 47-139l132-92a413 413 0 0 0-28-91l-164 0a125 125 0 0 1-118-87l-52-161a384 384 0 0 0-96 0z m191 23l36 112a42 42 0 0 0 40 29l114 1a418 418 0 0 0-190-142z" horiz-adv-x="1000" />

<glyph glyph-name="fi-rr-form" unicode="&#xe881;" d="M417 433a125 125 0 0 1 0-250h166a125 125 0 0 1 0 250z m208-125a42 42 0 0 0-42-41h-166a42 42 0 0 0 0 83h166a42 42 0 0 0 42-42z m83-250a42 42 0 0 0-41-41h-334a42 42 0 0 0 0 83h334a42 42 0 0 0 41-42z m106 662l-69 69a207 207 0 0 1-147 61h-265a209 209 0 0 1-208-208v-584a209 209 0 0 1 208-208h334a209 209 0 0 1 208 208v515a207 207 0 0 1-61 147z m-59-59a129 129 0 0 0 16-19h-104v104a122 122 0 0 0 19-16z m37-603a125 125 0 0 0-125-125h-334a125 125 0 0 0-125 125v584a125 125 0 0 0 125 125h250v-125a83 83 0 0 1 84-84h125z" horiz-adv-x="1000" />

<glyph glyph-name="fi-rr-forward" unicode="&#xe882;" d="M158-11a158 158 0 0 0-158 158v406a158 158 0 0 0 251 127l157-115a158 158 0 0 0 251 115l277-203a158 158 0 0 0 0-254l-277-203a158 158 0 0 0-251 116l-157-116a157 157 0 0 0-93-31z m292 270a42 42 0 0 0 41-41v-71a74 74 0 0 1 119-60l276 203a74 74 0 0 1 0 120l-276 203a74 74 0 0 1-119-60v-70a42 42 0 0 0-66-34l-223 164a74 74 0 0 1-119-60v-406a74 74 0 0 1 119-60l223 164a42 42 0 0 0 25 8z" horiz-adv-x="1000" />

<glyph glyph-name="fi-rr-ftp" unicode="&#xe883;" d="M958 17h-341a125 125 0 0 1-75 75v133h166a167 167 0 0 1 167 167v208a167 167 0 0 1-167 167h-182a42 42 0 0 0-24 7h0l-78 54a125 125 0 0 1-71 22h-61a167 167 0 0 1-167-167v-291a167 167 0 0 1 167-167h166v-133a125 125 0 0 1-75-75h-341a42 42 0 0 1 0-84h341a124 124 0 0 1 234 0h341a42 42 0 0 1 0 84z m-666 750h61a42 42 0 0 0 24-8l78-54a124 124 0 0 1 71-22h182a83 83 0 0 0 84-83h-584v83a83 83 0 0 0 84 84z m-84-375v125h584v-125a83 83 0 0 0-84-84h-416a83 83 0 0 0-84 84z m292-459a42 42 0 1 0 42 42 42 42 0 0 0-42-42z" horiz-adv-x="1000" />

<glyph glyph-name="fi-rr-gallery" unicode="&#xe884;" d="M792 850h-250a209 209 0 0 1-209-208v-4a209 209 0 0 1-166-205v-4a209 209 0 0 1-167-204v-167a209 209 0 0 1 208-208h250a209 209 0 0 1 209 208v5a209 209 0 0 1 166 204v4a209 209 0 0 1 167 204v167a209 209 0 0 1-208 208z m-709-625a125 125 0 0 0 125 125h250a125 125 0 0 0 110-67l-144-144-19 20a83 83 0 0 1-113 5l-193-165a123 123 0 0 0-16 59z m500-167a125 125 0 0 0-125-125h-250a124 124 0 0 0-46 9l183 158 20-20a83 83 0 0 1 118 0l100 101z m167 209a125 125 0 0 0-83-118v76a209 209 0 0 1-209 208h-208a125 125 0 0 0 125 125h250a125 125 0 0 0 125-125z m167 208a125 125 0 0 0-84-117v75a209 209 0 0 1-208 209h-208a125 125 0 0 0 125 125h250a125 125 0 0 0 125-125z m-750-250a42 42 0 1 0 41-42 42 42 0 0 0-41 42z" horiz-adv-x="1000" />

<glyph glyph-name="fi-rr-glasses" unicode="&#xe885;" d="M833 850a167 167 0 0 1-166-167 42 42 0 0 1 83 0 83 83 0 0 0 167 0v-459a206 206 0 0 1-125 43 208 208 0 0 1-173-92 166 166 0 0 1-238 0 208 208 0 0 1-173 92 206 206 0 0 1-125-43v459a83 83 0 0 0 167 0 42 42 0 0 1 83 0 167 167 0 0 1-333 0v-625a208 208 0 0 1 417 0 83 83 0 0 0 166 0 208 208 0 0 1 417 0v625a167 167 0 0 1-167 167z m-625-917a125 125 0 1 0 125 125 125 125 0 0 0-125-125z m584 0a125 125 0 1 0 125 125 125 125 0 0 0-125-125z" horiz-adv-x="1000" />

<glyph glyph-name="fi-rr-euro" unicode="&#xe886;" d="M905 85a417 417 0 0 0-719 140h439a42 42 0 0 1 0 83h-456a410 410 0 0 0 0 84h456a42 42 0 0 1 0 83h-439a417 417 0 0 0 719 140 42 42 0 0 1 64 53 500 500 0 0 1-869-193h-58a42 42 0 0 1 0-83h44c-2-14-3-28-3-42s1-28 3-42h-44a42 42 0 0 1 0-83h58a500 500 0 0 1 869-193 42 42 0 0 1-64 53z" horiz-adv-x="1000" />

<glyph glyph-name="fi-rr-exclamation" unicode="&#xe887;" d="M500 850a500 500 0 1 1 500-500 501 501 0 0 1-500 500z m0-917a417 417 0 1 0 417 417 417 417 0 0 0-417-417z m0 709a42 42 0 0 1-42-42v-333a42 42 0 0 1 84 0v333a42 42 0 0 1-42 42z" horiz-adv-x="1000" />

<glyph glyph-name="fi-rr-expand" unicode="&#xe888;" d="M792-150h-84a42 42 0 0 0 0 83h84a125 125 0 0 1 125 125v84a42 42 0 0 0 83 0v-84a209 209 0 0 0-208-208z m-750 667a42 42 0 0 0-42 41v84a209 209 0 0 0 208 208h84a42 42 0 0 0 0-83h-84a125 125 0 0 1-125-125v-84a42 42 0 0 0-41-41z m250-667h-84a209 209 0 0 0-208 208v84a42 42 0 0 0 83 0v-84a125 125 0 0 1 125-125h84a42 42 0 0 0 0-83z m666 667a42 42 0 0 0-41 41v84a125 125 0 0 1-125 125h-84a42 42 0 0 0 0 83h84a209 209 0 0 0 208-208v-84a42 42 0 0 0-42-41z" horiz-adv-x="1000" />

<glyph glyph-name="fi-rr-eye" unicode="&#xe889;" d="M970 458c-65 105-212 281-470 281s-405-176-470-281a205 205 0 0 1 0-215c65-106 212-282 470-282s405 176 470 282a205 205 0 0 1 0 215z m-71-172c-56-90-181-242-399-242s-343 152-399 242a122 122 0 0 0 0 128c56 90 182 242 399 242s343-152 399-242a122 122 0 0 0 0-128z m-399 272a208 208 0 1 1 208-208 209 209 0 0 1-208 208z m0-333a125 125 0 1 0 125 125 125 125 0 0 0-125-125z" horiz-adv-x="1000" />

<glyph glyph-name="fi-rr-eye-crossed" unicode="&#xe88a;" d="M970 458a661 661 0 0 1-141 162l117 117a42 42 0 0 1-59 59l-127-127a502 502 0 0 1-260 70c-258 0-405-176-470-281a205 205 0 0 1 0-215 661 661 0 0 1 141-163l-117-117a42 42 0 1 1 59-59l127 127a502 502 0 0 1 260-70c258 0 405 176 470 282a205 205 0 0 1 0 215z m-869-172a122 122 0 0 0 0 128c56 90 182 242 399 242a421 421 0 0 0 199-48l-84-84a208 208 0 0 1-289-289l-96-96a572 572 0 0 0-129 147z m524 64a125 125 0 0 0-125-125 123 123 0 0 0-53 13l166 166a123 123 0 0 0 12-54z m-250 0a125 125 0 0 0 125 125 123 123 0 0 0 54-12l-166-166a123 123 0 0 0-13 53z m524-64c-56-90-182-242-399-242a421 421 0 0 0-199 49l84 83a208 208 0 0 1 289 289l96 96a572 572 0 0 0 129-147 122 122 0 0 0 0-128z" horiz-adv-x="1000" />

<glyph glyph-name="fi-rr-eye-dropper" unicode="&#xe88b;" d="M963 635a126 126 0 0 1 0 178 129 129 0 0 1-178 0l-102-101c-42-43-130-33-190 0a108 108 0 0 1-128-173l59-59-340-339a144 144 0 0 1-24-172l-48-48a42 42 0 0 1 0-59h0a42 42 0 0 1 59 0l48 48a144 144 0 0 1 172 24l339 340 59-59a108 108 0 0 1 173 128c-33 60-43 148 0 190z m-731-642a64 64 0 0 0-89 0 63 63 0 0 0 0 89l340 339 89-88z m571 599c-74-73-63-201-14-290a24 24 0 0 0-5-28 26 26 0 0 0-36 0l-324 324a26 26 0 0 0 18 44 22 22 0 0 0 10-3c89-49 217-60 290 14l102 101a44 44 0 0 0 60 0 43 43 0 0 0 0-60z" horiz-adv-x="1000" />

<glyph glyph-name="fi-rr-feather" unicode="&#xe88c;" d="M951 801a165 165 0 0 1-158 44 1304 1304 0 0 1-574-323 323 323 0 0 1-94-243 319 319 0 0 1 66-179l-179-179a42 42 0 1 1 59-59l179 179a310 310 0 0 1 191-66 350 350 0 0 1 246 106c183 183 287 477 308 564a164 164 0 0 1-44 156z m-742-518a240 240 0 0 0 69 180c18 18 36 35 55 51v-272l-83-83a236 236 0 0 0-41 124z m418-144a246 246 0 0 0-317-38l94 95 0 0 113 112h240a1074 1074 0 0 0-130-169z m287 526a1235 1235 0 0 0-108-273h-205l137 137a42 42 0 1 1-59 59l-208-208 0 0-54-54v253a1265 1265 0 0 0 396 185 84 84 0 0 0 21 3 83 83 0 0 0 58-25 80 80 0 0 0 22-77z" horiz-adv-x="1000" />

<glyph glyph-name="fi-rr-file" unicode="&#xe88d;" d="M831 619l-145 146a290 290 0 0 1-206 85h-188a209 209 0 0 1-209-208v-584a209 209 0 0 1 209-208h416a209 209 0 0 1 209 208v355a290 290 0 0 1-86 206z m-59-59a208 208 0 0 0 33-43h-180a42 42 0 0 0-42 41v180a209 209 0 0 0 44-32z m61-502a125 125 0 0 0-125-125h-416a125 125 0 0 0-125 125v584a125 125 0 0 0 125 125h188c7 0 13-2 20-2v-207a125 125 0 0 1 125-125h206c1-6 2-13 2-20z" horiz-adv-x="1000" />

<glyph glyph-name="fi-rr-file-add" unicode="&#xe88e;" d="M667 183a42 42 0 0 0-42-41h-83v-84a42 42 0 0 0-84 0v84h-83a42 42 0 0 0 0 83h83v83a42 42 0 0 0 84 0v-83h83a42 42 0 0 0 42-42z m250 230v-355a209 209 0 0 0-209-208h-416a209 209 0 0 0-209 208v584a209 209 0 0 0 209 208h188a290 290 0 0 0 206-85l145-146a290 290 0 0 0 86-206z m-290 293a209 209 0 0 1-44 32v-180a42 42 0 0 1 42-41h180a208 208 0 0 1-33 43z m206-293c0 7-1 14-2 20h-206a125 125 0 0 0-125 125v207c-7 0-13 2-20 2h-188a125 125 0 0 1-125-125v-584a125 125 0 0 1 125-125h416a125 125 0 0 1 125 125z" horiz-adv-x="1000" />

<glyph glyph-name="fi-rr-file-ai" unicode="&#xe88f;" d="M313 641a31 31 0 0 1-28 20h0a31 31 0 0 1-29-20l-83-216a26 26 0 0 1 15-34 27 27 0 0 1 10-2 26 26 0 0 1 24 17l14 37h96l14-37a26 26 0 1 1 49 19z m-57-146l28 75 29-75z m212 166a26 26 0 0 1-26-26v-220a26 26 0 0 1 52 0v220a26 26 0 0 1-26 26z m324 189h-584a209 209 0 0 1-208-208v-584a209 209 0 0 1 208-208h473a207 207 0 0 1 147 61l111 111a207 207 0 0 1 61 147v473a209 209 0 0 1-208 208z m-709-792v584a125 125 0 0 0 125 125h584a125 125 0 0 0 125-125v-417h-167a125 125 0 0 1-125-125v-167h-417a125 125 0 0 0-125 125z m686-88a124 124 0 0 0-61-33v163a42 42 0 0 0 42 42h164a126 126 0 0 0-34-61z" horiz-adv-x="1000" />

<glyph glyph-name="fi-rr-file-check" unicode="&#xe890;" d="M831 619l-145 146a290 290 0 0 1-206 85h-188a209 209 0 0 1-209-208v-584a209 209 0 0 1 209-208h416a209 209 0 0 1 209 208v355a290 290 0 0 1-86 206z m-59-59a209 209 0 0 0 33-43h-180a42 42 0 0 0-42 41v180a209 209 0 0 0 44-32z m61-502a125 125 0 0 0-125-125h-416a125 125 0 0 0-125 125v584a125 125 0 0 0 125 125h188c7 0 13-2 20-2v-207a125 125 0 0 1 125-125h206c1-6 2-13 2-20z m-136 237a42 42 0 0 0-2-58l-149-143a125 125 0 0 0-176 1l-64 57a42 42 0 0 0 55 63l66-59a42 42 0 0 1 61-2l150 143a42 42 0 0 0 59-2z" horiz-adv-x="1000" />

<glyph glyph-name="fi-rr-file-delete" unicode="&#xe891;" d="M634 258l-75-75 75-74a42 42 0 1 0-59-59l-75 74-75-74a42 42 0 0 0-59 59l75 74-75 75a42 42 0 0 0 59 59l75-75 75 75a42 42 0 0 0 59-59z m283 155v-355a209 209 0 0 0-209-208h-416a209 209 0 0 0-209 208v584a209 209 0 0 0 209 208h188a290 290 0 0 0 206-85l145-146a290 290 0 0 0 86-206z m-290 293a209 209 0 0 1-44 32v-180a42 42 0 0 1 42-41h180a208 208 0 0 1-33 43z m206-293c0 7-1 14-2 20h-206a125 125 0 0 0-125 125v207c-7 0-13 2-20 2h-188a125 125 0 0 1-125-125v-584a125 125 0 0 1 125-125h416a125 125 0 0 1 125 125z" horiz-adv-x="1000" />

<glyph glyph-name="fi-rr-file-eps" unicode="&#xe892;" d="M290 608a26 26 0 0 1 0 52h-92a26 26 0 0 1-26-26v-218a26 26 0 0 1 26-26h92a26 26 0 0 1 0 52h-65v57h58a26 26 0 0 1 0 52h-58v57z m166 53h-61a26 26 0 0 1-19-8h0c0 0 0-1 0-1a25 25 0 0 1-5-7 26 26 0 0 1-2-8c0-1 0-1 0-2v-220a26 26 0 0 1 52 0v70l35 0a88 88 0 1 1 0 176z m0-124l-35 0 0 72h35a36 36 0 1 0 0-72z m336 313h-584a209 209 0 0 1-208-208v-584a209 209 0 0 1 208-208h473a207 207 0 0 1 147 61l111 111a207 207 0 0 1 61 147v473a209 209 0 0 1-208 208z m-709-792v584a125 125 0 0 0 125 125h584a125 125 0 0 0 125-125v-417h-167a125 125 0 0 1-125-125v-167h-417a125 125 0 0 0-125 125z m686-88a124 124 0 0 0-61-33v163a42 42 0 0 0 42 42h164a126 126 0 0 0-34-61z m-67 578c-11 4-23 6-34 9a52 52 0 0 0-25 12 25 25 0 0 0-6 26 25 25 0 0 0 20 14 62 62 0 0 0 25-4 312 312 0 0 0 34-13c13-5 27-8 37 3a25 25 0 0 1 1 31 45 45 0 0 1-17 15 133 133 0 0 1-101 14 76 76 0 0 1-42-35 72 72 0 0 1-9-25 68 68 0 0 1 10-46 81 81 0 0 1 40-31c17-7 34-13 51-20a54 54 0 0 0 20-11 24 24 0 0 0 6-24 30 30 0 0 0-19-17 64 64 0 0 0-40-2 111 111 0 0 0-36 21c-1 1-4 4-5 4a25 25 0 0 1-31-2 26 26 0 0 1-2-37 131 131 0 0 1 96-41 89 89 0 0 1 90 69 74 74 0 0 1-25 68 111 111 0 0 1-38 22z" horiz-adv-x="1000" />

<glyph glyph-name="fi-rr-file-gif" unicode="&#xe893;" d="M792 850h-584a209 209 0 0 1-208-208v-584a209 209 0 0 1 208-208h473a207 207 0 0 1 147 61l111 111a207 207 0 0 1 61 147v473a209 209 0 0 1-208 208z m-709-792v584a125 125 0 0 0 125 125h584a125 125 0 0 0 125-125v-417h-167a125 125 0 0 1-125-125v-167h-417a125 125 0 0 0-125 125z m686-88a124 124 0 0 0-61-33v163a42 42 0 0 0 42 42h163a124 124 0 0 0-33-61z m-436 515v-13a83 83 0 0 0-83-83h0a83 83 0 0 0-83 83v87a83 83 0 0 0 83 83h0a84 84 0 0 0 74-45 26 26 0 1 0-46-24 33 33 0 0 1-28 17 31 31 0 0 1-31-32v-86a31 31 0 0 1 31-31 32 32 0 0 1 31 31v3h-10a21 21 0 0 0 0 42h31a31 31 0 0 0 31-32z m250 5v-75a26 26 0 0 0-52 0v201a26 26 0 0 0 26 26h84a26 26 0 0 0 0-52h-58v-48h52a26 26 0 0 0 0-52z m-125 126v-201a26 26 0 1 0-52 0v201a26 26 0 0 0 52 0z" horiz-adv-x="1000" />

<glyph glyph-name="fi-rr-file-music" unicode="&#xe894;" d="M625 350a42 42 0 0 0-42-42h-41v-187a104 104 0 1 0-104 104 107 107 0 0 0 20-2v85a83 83 0 0 0 84 84h41a42 42 0 0 0 42-42z m292 63v-355a209 209 0 0 0-209-208h-416a209 209 0 0 0-209 208v584a209 209 0 0 0 209 208h188a290 290 0 0 0 206-85l145-146a290 290 0 0 0 86-206z m-290 293a208 208 0 0 1-44 32v-180a42 42 0 0 1 42-41h180a208 208 0 0 1-33 44z m206-293c0 7-1 14-2 20h-206a125 125 0 0 0-125 125v207c-7 0-13 2-20 2h-188a125 125 0 0 1-125-125v-584a125 125 0 0 1 125-125h416a125 125 0 0 1 125 125z" horiz-adv-x="1000" />

<glyph glyph-name="fi-rr-fill" unicode="&#xe895;" d="M930 82c31-43 70-93 70-128a104 104 0 0 0-208 0c0 32 40 84 70 128a42 42 0 0 0 68 0z m-36 190l-362-361a209 209 0 0 0-294 0l-177 177a208 208 0 0 0 0 294l238 238-119 121a42 42 0 0 0 59 58l119-120 64 65-35 35a42 42 0 0 0 59 59l542-542a42 42 0 1 0-59-59z m-59 59l-354 354-65-65 197-199a42 42 0 1 0-59-58l-196 198-238-237a125 125 0 0 1 0-177l177-177a125 125 0 0 1 177 0z" horiz-adv-x="1000" />

<glyph glyph-name="fi-rr-file-psd" unicode="&#xe896;" d="M623 419a26 26 0 0 1 26-26h0s45 0 62 0c64 1 110 57 110 132 0 79-45 132-112 132h-60a26 26 0 0 1-26-26v0h0v-209a20 20 0 0 1 0-2z m86 186c44 0 60-41 60-80s-18-79-59-80c-8 0-22 0-35 0l0 160z m-204-57c-11 4-23 6-35 9a52 52 0 0 0-24 12 25 25 0 0 0-7 26 25 25 0 0 0 21 14 62 62 0 0 0 25-4 316 316 0 0 0 34-13c12-5 27-8 37 3a25 25 0 0 1 1 31 45 45 0 0 1-17 15 133 133 0 0 1-101 14 76 76 0 0 1-43-35 72 72 0 0 1-8-25 68 68 0 0 1 9-46 81 81 0 0 1 40-31c18-7 35-13 52-20a55 55 0 0 0 20-11 24 24 0 0 0 6-24 30 30 0 0 0-19-17 64 64 0 0 0-40-2 111 111 0 0 0-36 21c-1 1-4 4-5 4a25 25 0 0 1-32-2 26 26 0 0 1-2-37 131 131 0 0 1 96-41 89 89 0 0 1 91 69 74 74 0 0 1-25 68 111 111 0 0 1-38 22z m-246 113h-61a26 26 0 0 1-10-2 26 26 0 0 1-9-6h0l0 0a26 26 0 0 1-5-8 27 27 0 0 1-2-8c0-1 0-1 0-2v-220a26 26 0 0 1 52 0v70l35 0a88 88 0 1 1 0 176z m0-124l-35 0 0 72h35a36 36 0 1 0 0-72z m533 313h-584a209 209 0 0 1-208-208v-584a209 209 0 0 1 208-208h473a207 207 0 0 1 147 61l111 111a207 207 0 0 1 61 147v473a209 209 0 0 1-208 208z m-709-792v584a125 125 0 0 0 125 125h584a125 125 0 0 0 125-125v-417h-167a125 125 0 0 1-125-125v-167h-417a125 125 0 0 0-125 125z m686-88a124 124 0 0 0-61-33v163a42 42 0 0 0 42 42h164a126 126 0 0 0-34-61z" horiz-adv-x="1000" />

<glyph glyph-name="fi-rr-indent" unicode="&#xe897;" d="M42 600h916a42 42 0 0 1 0 83h-916a42 42 0 0 1 0-83z m916-125h-583a42 42 0 0 1 0-83h583a42 42 0 0 1 0 83z m0-417h-916a42 42 0 0 1 0-83h916a42 42 0 0 1 0 83z m0 209h-583a42 42 0 0 1 0-84h583a42 42 0 0 1 0 84z m-887-94l124 124a46 46 0 0 1 0 64l-124 124a42 42 0 0 1-71-29v-253a42 42 0 0 1 71-30z" horiz-adv-x="1000" />

<glyph glyph-name="fi-rr-infinity" unicode="&#xe898;" d="M750 600c-124 0-206-93-250-162-44 69-126 162-250 162a250 250 0 0 1 0-500c124 0 206 93 250 162 44-69 126-162 250-162a250 250 0 0 1 0 500z m-500-417a167 167 0 0 0 0 334c112 0 183-123 204-167-21-44-91-167-204-167z m500 0c-112 0-183 123-204 167 21 44 91 167 204 167a167 167 0 0 0 0-334z" horiz-adv-x="1000" />

<glyph glyph-name="fi-rr-info" unicode="&#xe899;" d="M500 850a500 500 0 1 1 500-500 501 501 0 0 1-500 500z m0-917a417 417 0 1 0 417 417 417 417 0 0 0-417-417z m0 500h-42a42 42 0 0 1 0-83h42v-250a42 42 0 0 1 83 0v250a83 83 0 0 1-83 83z" horiz-adv-x="1000" />

<glyph glyph-name="fi-rr-interactive" unicode="&#xe89a;" d="M988-79l-45 45-72 72 116 116a42 42 0 0 1-15 69l-374 135a83 83 0 0 1-107-106l136-374a42 42 0 0 1 31-27 42 42 0 0 1 9-1 42 42 0 0 1 29 13l116 116 72-72 45-45a42 42 0 0 1 59 59z m-305 47l-113 312 312-113z m-266 49a417 417 0 1 0 416 416 42 42 0 0 0-83 0 333 333 0 1 1-333-333 42 42 0 0 0 0-83z m-80 182a42 42 0 0 0-16 3 250 250 0 1 0 327 327 42 42 0 1 0-77-32 167 167 0 1 1-218-218 42 42 0 0 0-16-80z" horiz-adv-x="1000" />

<glyph glyph-name="fi-rr-interlining" unicode="&#xe89b;" d="M417 600h541a42 42 0 0 1 0 83h-541a42 42 0 0 1 0-83z m541-208h-541a42 42 0 0 1 0-84h541a42 42 0 0 1 0 84z m0-292h-541a42 42 0 0 1 0-83h541a42 42 0 0 1 0 83z m-704 500a21 21 0 0 1 14 36l-101 101a42 42 0 0 1-59 0l-102-101a21 21 0 0 1 15-36h75v-500h-75a21 21 0 0 1-15-36l102-101a42 42 0 0 1 59 0l101 101a21 21 0 0 1-14 36h-75v500z" horiz-adv-x="1000" />

<glyph glyph-name="fi-rr-interrogation" unicode="&#xe89c;" d="M500 850a500 500 0 1 1 500-500 501 501 0 0 1-500 500z m0-917a417 417 0 1 0 417 417 417 417 0 0 0-417-417z m30 706a167 167 0 0 1-197-164 42 42 0 0 1 84 0 83 83 0 0 0 99 82 84 84 0 0 0 66-66 83 83 0 0 0-41-89 165 165 0 0 1-83-146v-31a42 42 0 0 1 84 0v31a83 83 0 0 0 38 73 167 167 0 0 1-50 310z" horiz-adv-x="1000" />

<glyph glyph-name="fi-rr-italic" unicode="&#xe89d;" d="M833 850h-541a42 42 0 0 1 0-83h223l-114-834h-234a42 42 0 0 1 0-83h541a42 42 0 0 1 0 83h-223l114 834h234a42 42 0 0 1 0 83z" horiz-adv-x="1000" />

<glyph glyph-name="fi-rr-jpg" unicode="&#xe89e;" d="M792 850h-584a209 209 0 0 1-208-208v-584a209 209 0 0 1 208-208h473a207 207 0 0 1 147 61l111 111a207 207 0 0 1 61 147v473a209 209 0 0 1-208 208z m-709-792v584a125 125 0 0 0 125 125h584a125 125 0 0 0 125-125v-417h-167a125 125 0 0 1-125-125v-167h-417a125 125 0 0 0-125 125z m686-88a126 126 0 0 0-61-33v163a42 42 0 0 0 42 42h163a124 124 0 0 0-33-61z m-186 502v87a83 83 0 0 0 84 83h0a84 84 0 0 0 74-45 26 26 0 1 0-47-24 33 33 0 0 1-27 17 31 31 0 0 1-31-32v-86a31 31 0 0 1 31-31 32 32 0 0 1 31 31v3h-10a21 21 0 0 0 0 42h31a31 31 0 0 0 31-32v-13a83 83 0 0 0-83-83h0a83 83 0 0 0-84 83z m-250 143v-140a86 86 0 0 0-86-86h0a88 88 0 0 0-77 49 27 27 0 1 0 48 24 34 34 0 0 1 29-19 32 32 0 0 1 32 33l0 139a27 27 0 0 0 54 0z m129 27h-45a42 42 0 0 1-42-42v-185a26 26 0 1 1 52 0v51l35 0a88 88 0 1 1 0 176z m0-124l-35 0 0 72h35a36 36 0 1 0 0-72z" horiz-adv-x="1000" />

<glyph glyph-name="fi-rr-key" unicode="&#xe89f;" d="M313-150a313 313 0 0 0-85 613 307 307 0 0 0 162 2l329 330a188 188 0 0 0 134 55h0a148 148 0 0 0 147-147 188 188 0 0 0-55-134l-28-28a84 84 0 0 0-59-24h-66v-42a83 83 0 0 0-84-83h-41v-66a83 83 0 0 0-25-59l-27-27a306 306 0 0 0-2-162 314 314 0 0 0-268-226 319 319 0 0 0-32-2z m0 542a229 229 0 1 1 220-292 225 225 0 0 1-4 138 42 42 0 0 0 10 43l44 45v66a83 83 0 0 0 84 83h41v42a83 83 0 0 0 84 83h66l28 28a105 105 0 0 1 31 75 64 64 0 0 1-64 64 105 105 0 0 1-75-31l-347-347a42 42 0 0 0-43-10 228 228 0 0 1-75 13z m-105-292a42 42 0 1 1 42 42 42 42 0 0 1-42-42z" horiz-adv-x="1000" />

<glyph glyph-name="fi-rr-keyboard" unicode="&#xe8a0;" d="M792 600h-250v125a42 42 0 0 1-84 0v-125h-250a209 209 0 0 1-208-208v-167a209 209 0 0 1 208-208h584a209 209 0 0 1 208 208v167a209 209 0 0 1-208 208z m125-375a125 125 0 0 0-125-125h-584a125 125 0 0 0-125 125v167a125 125 0 0 0 125 125h584a125 125 0 0 0 125-125z m-292 42h-250a42 42 0 0 1 0-84h250a42 42 0 0 1 0 84z m-208 83h41a42 42 0 0 1 0 83h-41a42 42 0 0 1 0-83z m375 83h-167a42 42 0 0 1 0-83h167a42 42 0 0 1 0 83z m-542 0h-42a42 42 0 0 1 0-83h42a42 42 0 0 1 0 83z" horiz-adv-x="1000" />

<glyph glyph-name="fi-rr-label" unicode="&#xe8a1;" d="M852 660l-332 185a42 42 0 0 1-40 0l-332-185a125 125 0 0 1-65-109v-493a209 209 0 0 1 209-208h416a209 209 0 0 1 209 208v493a125 125 0 0 1-65 109z m-19-602a125 125 0 0 0-125-125h-416a125 125 0 0 0-125 125v493a42 42 0 0 0 21 37l312 173 312-173a42 42 0 0 0 21-37z" horiz-adv-x="1000" />

<glyph glyph-name="fi-rr-laptop" unicode="&#xe8a2;" d="M917 217v300a209 209 0 0 1-209 208h-416a209 209 0 0 1-209-208v-300a125 125 0 0 1 42-242h750a125 125 0 0 1 42 242z m-625 425h416a125 125 0 0 0 125-125v-292h-173a83 83 0 0 1-63-29l-11-13h-172l-11 13a83 83 0 0 1-63 29h-173v292a125 125 0 0 0 125 125z m583-584h-750a42 42 0 0 0 0 84h215l10-12a83 83 0 0 1 64-30h172a83 83 0 0 1 64 30l10 12h215a42 42 0 0 0 0-84z" horiz-adv-x="1000" />

<glyph glyph-name="fi-rr-lasso" unicode="&#xe8a3;" d="M542 850c-253 0-459-168-459-375a314 314 0 0 1 29-129 123 123 0 0 1-18-128 291 291 0 0 1-94-201 162 162 0 0 1 167-167 42 42 0 0 1 0 83 79 79 0 0 0-84 84 210 210 0 0 0 71 142 451 451 0 0 1 142-18c13 0 24 1 36 1a544 544 0 0 1 210-42c252 0 458 168 458 375s-206 375-458 375z m-363-612a41 41 0 0 0 0 58h0a41 41 0 0 0 58 0 351 351 0 0 0 44-71 310 310 0 0 0-102 13z m363-55a463 463 0 0 0-163 30 602 602 0 0 1-83 142 127 127 0 0 1-112 33 231 231 0 0 0-17 87c0 161 168 292 375 292s375-131 375-292-168-292-375-292z" horiz-adv-x="1000" />

<glyph glyph-name="fi-rr-layers" unicode="&#xe8a4;" d="M937 393l-437-262-437 262a42 42 0 1 1-43-72l459-275a42 42 0 0 1 43 0l458 275a42 42 0 1 1-43 72z m0-191l-437-262-437 262a42 42 0 1 1-43-71l459-275a42 42 0 0 1 43 0l458 275a42 42 0 1 1-43 71z m-437 33a124 124 0 0 0-64 17l-416 250a42 42 0 0 0 0 71l416 250a124 124 0 0 0 128 0l416-250a42 42 0 0 0 0-71l-416-250a124 124 0 0 0-64-17z m-377 303l356-214a41 41 0 0 1 42 0l356 214-356 213a41 41 0 0 1-42 0h0z" horiz-adv-x="1000" />

<glyph glyph-name="fi-rr-globe" unicode="&#xe8a5;" d="M500 850a500 500 0 1 1 500-500 501 501 0 0 1-500 500z m360-292h-134a820 820 0 0 1-117 194 418 418 0 0 0 251-194z m-172-208a426 426 0 0 0-20-125h-336a426 426 0 0 0-19 125 426 426 0 0 0 19 125h336a426 426 0 0 0 20-125z m-322-208h268a817 817 0 0 0-134-192 815 815 0 0 0-134 192z m0 416a817 817 0 0 0 134 192 815 815 0 0 0 134-192z m26 194a820 820 0 0 1-118-194h-134a418 418 0 0 0 252 194z m-289-277h143a501 501 0 0 1-17-125 501 501 0 0 1 17-125h-143a416 416 0 0 0 0 250z m37-333h134a820 820 0 0 1 118-194 418 418 0 0 0-252 194z m469-194a820 820 0 0 1 117 194h134a418 418 0 0 0-251-194z m289 277h-144a501 501 0 0 1 17 125 501 501 0 0 1-17 125h143a416 416 0 0 0 0-250z" horiz-adv-x="1000" />

<glyph glyph-name="fi-rr-globe-alt" unicode="&#xe8a6;" d="M542 183a333 333 0 1 1-334 334 334 334 0 0 1 334-334z m0 584a250 250 0 1 0-250-250 250 250 0 0 0 250 250z m413-532a500 500 0 0 0-372-216v-86h167a42 42 0 0 0 0-83h-417a42 42 0 0 0 0 83h167v86a500 500 0 0 0-344 816 42 42 0 0 0 64-53 417 417 0 1 1 666-500 42 42 0 0 0 69-47z" horiz-adv-x="1000" />

<glyph glyph-name="fi-rr-golf" unicode="&#xe8a7;" d="M500 433a846 846 0 0 1-167-16l-1 95 209 86a83 83 0 0 1 11 142 35 35 0 0 1-4 3l-177 98a83 83 0 0 1-121-74v-372c-150-49-250-143-250-253 0-164 220-292 500-292s500 128 500 292-220 291-500 291z m3 240l-171-71 0 165z m-3-740c-226 0-417 96-417 209 0 66 67 126 167 165v-165a42 42 0 0 1 83 0l0 190a760 760 0 0 0 167 18c226 0 417-95 417-208s-191-209-417-209z m208 209a83 83 0 1 0-83 83 83 83 0 0 0 83-83z" horiz-adv-x="1000" />

<glyph glyph-name="fi-rr-graduation-cap" unicode="&#xe8a8;" d="M995 536a162 162 0 0 1-76 96l-307 147a218 218 0 0 1-220 1l-311-148c-1 0-2-1-3-2a154 154 0 0 1 3-269l86-41v-204a209 209 0 0 1 146-199 648 648 0 0 1 187-25 648 648 0 0 1 187 25 209 209 0 0 1 146 199v205l84 39v-343a42 42 0 0 1 83 0v500a40 40 0 0 1-5 19z m-245-420a125 125 0 0 0-87-119 566 566 0 0 0-163-22 566 566 0 0 0-162 22 125 125 0 0 0-88 119v165l138-66a220 220 0 0 1 113-31 208 208 0 0 1 107 29l142 68z m133 321l-314-150a137 137 0 0 0-141 1l-308 147a71 71 0 0 0-1 123l312 149a138 138 0 0 0 141-2l308-146a72 72 0 0 0 37-62 71 71 0 0 0-34-60z" horiz-adv-x="1000" />

<glyph glyph-name="fi-rr-graphic-tablet" unicode="&#xe8a9;" d="M792 683h-500a209 209 0 0 1-209-208v-83h-41a42 42 0 0 1 0-84h41v-83a209 209 0 0 1 209-208h500a209 209 0 0 1 208 208v250a209 209 0 0 1-208 208z m-625-458v83a42 42 0 0 1 0 84v83a125 125 0 0 0 125 125v-500a125 125 0 0 0-125 125z m750 0a125 125 0 0 0-125-125h-417v500h417a125 125 0 0 0 125-125z" horiz-adv-x="1000" />

<glyph glyph-name="fi-rr-grid" unicode="&#xe8aa;" d="M188 121h-105a83 83 0 0 1-83-83v-105a83 83 0 0 1 83-83h105a83 83 0 0 1 83 83v105a83 83 0 0 1-83 83z m0-188h-105v105h105z m729 188h-104a83 83 0 0 1-84-83v-105a83 83 0 0 1 84-83h104a83 83 0 0 1 83 83v105a83 83 0 0 1-83 83z m0-188h-104v105h104z m-729 552h-105a83 83 0 0 1-83-83v-104a83 83 0 0 1 83-83h105a83 83 0 0 1 83 83v104a83 83 0 0 1-83 83z m0-187h-105v104h105z m729 187h-104a83 83 0 0 1-84-83v-104a83 83 0 0 1 84-83h104a83 83 0 0 1 83 83v104a83 83 0 0 1-83 83z m0-187h-104v104h104z m-729 552h-105a83 83 0 0 1-83-83v-104a83 83 0 0 1 83-84h105a83 83 0 0 1 83 84v104a83 83 0 0 1-83 83z m0-187h-105v104h105z m364-542h-104a83 83 0 0 1-83-83v-105a83 83 0 0 1 83-83h104a83 83 0 0 1 83 83v105a83 83 0 0 1-83 83z m0-188h-104v105h104z m0 552h-104a83 83 0 0 1-83-83v-104a83 83 0 0 1 83-83h104a83 83 0 0 1 83 83v104a83 83 0 0 1-83 83z m0-187h-104v104h104z m0 552h-104a83 83 0 0 1-83-83v-104a83 83 0 0 1 83-84h104a83 83 0 0 1 83 84v104a83 83 0 0 1-83 83z m0-187h-104v104h104z m365 187h-104a83 83 0 0 1-84-83v-104a83 83 0 0 1 84-84h104a83 83 0 0 1 83 84v104a83 83 0 0 1-83 83z m0-187h-104v104h104z" horiz-adv-x="1000" />

<glyph glyph-name="fi-rr-grid-alt" unicode="&#xe8ab;" d="M792 850h-584a209 209 0 0 1-208-208v-584a209 209 0 0 1 208-208h584a209 209 0 0 1 208 208v584a209 209 0 0 1-208 208z m-125-458h-125v125h125z m83 125h167v-125h-167z m-208 83v167h125v-167z m-84 0h-125v167h125z m0-83v-125h-125v125z m-208-125h-167v125h167z m-167-84h167v-125h-167z m250 0h125v-125h-125z m125-208v-167h-125v167z m84 0h125v-167h-125z m0 83v125h125v-125z m208 125h167v-125h-167z m167 334v-42h-167v167h42a125 125 0 0 0 125-125z m-709 125h42v-167h-167v42a125 125 0 0 0 125 125z m-125-709v42h167v-167h-42a125 125 0 0 0-125 125z m709-125h-42v167h167v-42a125 125 0 0 0-125-125z" horiz-adv-x="1000" />

<glyph glyph-name="fi-rr-gym" unicode="&#xe8ac;" d="M956 565l-91 91 40 40a42 42 0 1 1-59 59l-40-40-91 91a154 154 0 0 1-213 0 150 150 0 0 1 0-213l91-91-245-245-91 91a154 154 0 0 1-213 0 150 150 0 0 1 0-213l91-91-39-39a42 42 0 1 1 59-60l39 40 91-91a150 150 0 0 1 213 0h0a150 150 0 0 1 0 213l-91 91 246 245 90-91a150 150 0 0 1 213 0h0a150 150 0 0 1 0 213z m-498-565a67 67 0 0 0-19-47 69 69 0 0 0-95 0l-241 241a67 67 0 1 0 95 95l241-241a67 67 0 0 0 19-48z m439 411a69 69 0 0 0-95 0l-241 241a67 67 0 1 0 95 95l241-241a67 67 0 0 0 0-95z" horiz-adv-x="1000" />

<glyph glyph-name="fi-rr-headphones" unicode="&#xe8ad;" d="M875 332v60a375 375 0 0 1-750 0v-60a208 208 0 0 1 83-399 83 83 0 0 1 84 84v250a83 83 0 0 1-84 83v42a292 292 0 0 0 584 0v-42a83 83 0 0 1-84-83v-250a83 83 0 0 1 84-84 208 208 0 0 1 83 399z m-667-315h0a125 125 0 0 0 0 250z m584 0v250a125 125 0 0 0 0-250z" horiz-adv-x="1000" />

<glyph glyph-name="fi-rr-headset" unicode="&#xe8ae;" d="M875 332v60a375 375 0 0 1-750 0v-60a208 208 0 0 1 83-399 83 83 0 0 1 84 84v250a83 83 0 0 1-84 83v42a292 292 0 0 0 584 0v-42a83 83 0 0 1-84-83v-250h-125a42 42 0 0 1 0-84h209a208 208 0 0 1 83 399z m-667-315h0a125 125 0 0 0 0 250z m584 0v250a125 125 0 0 0 0-250z" horiz-adv-x="1000" />

<glyph glyph-name="fi-rr-heart" unicode="&#xe8af;" d="M729 770a267 267 0 0 1-229-137 267 267 0 0 1-229 137 283 283 0 0 1-271-294c0-189 199-396 367-536a207 207 0 0 1 266 0c168 140 367 347 367 536a283 283 0 0 1-271 294z m-149-766a124 124 0 0 0-160 0c-214 179-337 351-337 472a200 200 0 0 0 188 211 200 200 0 0 0 187-211 42 42 0 0 1 84 0 200 200 0 0 0 187 211 200 200 0 0 0 188-211c0-121-123-293-337-472z" horiz-adv-x="1000" />

<glyph glyph-name="fi-rr-home" unicode="&#xe8b0;" d="M963 472l-316 316a209 209 0 0 1-294 0l-316-316a124 124 0 0 1-37-88v-409a125 125 0 0 1 125-125h750a125 125 0 0 1 125 125v409a124 124 0 0 1-37 88z m-338-539h-250v164a125 125 0 0 0 250 0z m292 42a42 42 0 0 0-42-42h-167v164a208 208 0 0 1-416 0v-164h-167a42 42 0 0 0-42 42v409a42 42 0 0 0 13 29l316 316a125 125 0 0 0 176 0l317-316a42 42 0 0 0 12-29z" horiz-adv-x="1000" />

<glyph glyph-name="fi-rr-hourglass" unicode="&#xe8b1;" d="M708-150h-416a168 168 0 0 0-127 58 164 164 0 0 0-38 132 522 522 0 0 0 183 310 522 522 0 0 0-183 310 164 164 0 0 0 38 132 168 168 0 0 0 127 58h416a167 167 0 0 0 127-58 164 164 0 0 0 38-132 523 523 0 0 0-183-310 523 523 0 0 0 183-310 164 164 0 0 0-38-132 167 167 0 0 0-127-58z m0 917h-416a84 84 0 0 1-64-29 80 80 0 0 1-19-65c16-104 80-202 192-290a42 42 0 0 0 0-65c-112-89-176-186-192-290a80 80 0 0 1 19-66 84 84 0 0 1 64-29h416a84 84 0 0 1 64 29 80 80 0 0 1 19 65c-15 104-80 202-192 290a42 42 0 0 0 0 66c112 88 177 186 192 290a80 80 0 0 1-19 65 84 84 0 0 1-64 29z" horiz-adv-x="1000" />

<glyph glyph-name="fi-rr-hourglass-end" unicode="&#xe8b2;" d="M708-150h-416a167 167 0 0 0-127 58 164 164 0 0 0-38 132 522 522 0 0 0 183 310 522 522 0 0 0-183 310 164 164 0 0 0 38 132 167 167 0 0 0 127 58h416a167 167 0 0 0 127-58 164 164 0 0 0 38-132 523 523 0 0 0-183-310 523 523 0 0 0 183-310 164 164 0 0 0-38-132 167 167 0 0 0-127-58z m0 917h-416a84 84 0 0 1-64-29 80 80 0 0 1-19-65c16-104 80-202 192-290a42 42 0 0 0 0-65c-112-89-176-186-192-290a80 80 0 0 1 19-66 84 84 0 0 1 64-29h416a84 84 0 0 1 64 29 80 80 0 0 1 19 65c-15 104-80 202-192 290a42 42 0 0 0 0 66c112 88 177 186 192 290a80 80 0 0 1-19 65 84 84 0 0 1-64 29z m-55-750h-306a42 42 0 0 0-39 57 466 466 0 0 0 145 178l21 17a42 42 0 0 0 52 0l21-17a471 471 0 0 0 145-178 42 42 0 0 0-39-57z m-235 83h164a482 482 0 0 1-82 83 471 471 0 0 1-82-83z" horiz-adv-x="1000" />

<glyph glyph-name="fi-rr-ice-skate" unicode="&#xe8b3;" d="M958 58a42 42 0 0 1-41-41 83 83 0 0 0-84-84h-166v167h87a163 163 0 0 1 163 163 251 251 0 0 1-201 245l-162 32a83 83 0 0 0-66 71l-17 132a125 125 0 0 1-153 103l-197-55a167 167 0 0 1-121-160v-364a167 167 0 0 1 167-167h41v-167h-166a42 42 0 0 1 0-83h791a167 167 0 0 1 167 167 42 42 0 0 1-42 41z m-875 209v364a84 84 0 0 0 61 80l194 55a44 44 0 0 0 9 1 42 42 0 0 0 41-36l6-48h-102a42 42 0 0 1 0-83h113a165 165 0 0 1 11-38l-98-59a42 42 0 0 1 43-72l103 63a165 165 0 0 1 36-23l-57-100a42 42 0 0 1 72-42l69 120 115-23a167 167 0 0 0 134-163 79 79 0 0 0-79-80h-587a83 83 0 0 0-84 84z m209-167h291v-167h-291z" horiz-adv-x="1000" />

<glyph glyph-name="fi-rr-id-badge" unicode="&#xe8b4;" d="M792 683h-167v42a125 125 0 0 1-250 0v-42h-167a209 209 0 0 1-208-208v-417a209 209 0 0 1 208-208h584a209 209 0 0 1 208 208v417a209 209 0 0 1-208 208z m-334 42a42 42 0 0 0 84 0v-83a42 42 0 0 0-84 0z m459-667a125 125 0 0 0-125-125h-584a125 125 0 0 0-125 125v417a125 125 0 0 0 125 125h175a124 124 0 0 1 234 0h175a125 125 0 0 0 125-125z m-500 375h-209a42 42 0 0 1-41-41v-334a42 42 0 0 1 41-41h209a42 42 0 0 1 41 41v334a42 42 0 0 1-41 41z m-42-333h-125v250h125z m458 125a42 42 0 0 0-41-42h-209a42 42 0 0 0 0 84h209a42 42 0 0 0 41-42z m0 167a42 42 0 0 0-41-42h-209a42 42 0 0 0 0 83h209a42 42 0 0 0 41-41z m-83-334a42 42 0 0 0-42-41h-125a42 42 0 0 0 0 83h125a42 42 0 0 0 42-42z" horiz-adv-x="1000" />

<glyph glyph-name="fi-rr-inbox" unicode="&#xe8b5;" d="M875 350h-125a83 83 0 0 1-83-83 83 83 0 0 0-84-84h-166a83 83 0 0 0-84 84 83 83 0 0 1-83 83h-125a125 125 0 0 1-125-125v-167a209 209 0 0 1 208-208h584a209 209 0 0 1 208 208v167a125 125 0 0 1-125 125z m42-292a125 125 0 0 0-125-125h-584a125 125 0 0 0-125 125v167a42 42 0 0 0 42 42h125a167 167 0 0 1 167-167h166a167 167 0 0 1 167 167h125a42 42 0 0 0 42-42z m-792 375h750a42 42 0 0 1 0 84h-750a42 42 0 0 1 0-84z m0 167h750a42 42 0 0 1 0 83h-750a42 42 0 0 1 0-83z" horiz-adv-x="1000" />

<glyph glyph-name="fi-rr-incognito" unicode="&#xe8b6;" d="M688 142a146 146 0 0 1-135-91 195 195 0 0 1-106 0 146 146 0 1 1 8-85 147 147 0 0 0 45 9 146 146 0 0 0 45-9 146 146 0 1 1 143 176z m-375-209a63 63 0 1 0 62 63 63 63 0 0 0-62-63z m375 0a63 63 0 1 0 62 63 63 63 0 0 0-62-63z m144 556c-11 336-194 360-203 361a39 39 0 0 1-4 0 188 188 0 0 1-101-34 42 42 0 0 0-48 0 188 188 0 0 1-101 34 39 39 0 0 1-4 0c-8-1-192-25-203-361-56-19-168-66-168-139 0-154 258-167 500-167s500 13 500 167c0 73-112 120-168 139z m-455 278a110 110 0 0 0 51-19 126 126 0 0 1 144 0 110 110 0 0 0 50 19c19-5 122-41 128-286a550 550 0 0 0-250-48 551 551 0 0 0-250 48c7 247 111 282 127 286z m123-500c-344 0-417 45-417 80a252 252 0 0 0 119 65 607 607 0 0 1 298-62 607 607 0 0 1 298 62 285 285 0 0 0 119-62c0-38-73-83-417-83z" horiz-adv-x="1000" />

<glyph glyph-name="fi-rr-mobile" unicode="&#xe8b7;" d="M667 850h-334a209 209 0 0 1-208-208v-584a209 209 0 0 1 208-208h334a209 209 0 0 1 208 208v584a209 209 0 0 1-208 208z m125-792a125 125 0 0 0-125-125h-125v42a42 42 0 0 1-84 0v-42h-125a125 125 0 0 0-125 125v584a125 125 0 0 0 125 125h334a125 125 0 0 0 125-125z m-125 125a42 42 0 0 0-42-41h-250a42 42 0 0 0 0 83h250a42 42 0 0 0 42-42z m-250 125a42 42 0 0 1 41 42v42h84v-42a42 42 0 0 1 83 0v167a125 125 0 0 1-250 0v-167a42 42 0 0 1 42-42z m83 250a42 42 0 0 0 42-41v-42h-84v42a42 42 0 0 0 42 41z" horiz-adv-x="1000" />

<glyph glyph-name="fi-rr-mode-landscape" unicode="&#xe8b8;" d="M750 58a42 42 0 0 1 30 72l-258 257a208 208 0 0 1-294 0l-91-91a42 42 0 0 1 59-59l91 91a128 128 0 0 0 176 0l258-257a42 42 0 0 1 29-13z m-83 355a146 146 0 1 1-146 145 146 146 0 0 1 146-145z m0 208a63 63 0 1 0-63-63 63 63 0 0 0 63 63z m291-438a42 42 0 0 1-41-41v-84a125 125 0 0 0-125-125h-84a42 42 0 0 1 0-83h84a209 209 0 0 1 208 208v84a42 42 0 0 1-42 41z m-916 334a42 42 0 0 1 41 41v84a125 125 0 0 0 125 125h84a42 42 0 0 1 0 83h-84a209 209 0 0 1-208-208v-84a42 42 0 0 1 42-41z m250-584h-84a125 125 0 0 0-125 125v84a42 42 0 0 1-83 0v-84a209 209 0 0 1 208-208h84a42 42 0 0 1 0 83z m500 917h-84a42 42 0 0 1 0-83h84a125 125 0 0 0 125-125v-84a42 42 0 0 1 83 0v84a209 209 0 0 1-208 208z" horiz-adv-x="1000" />

<glyph glyph-name="fi-rr-mode-portrait" unicode="&#xe8b9;" d="M958 183a42 42 0 0 1-41-41v-84a125 125 0 0 0-125-125h-84a42 42 0 0 1 0-83h84a209 209 0 0 1 208 208v84a42 42 0 0 1-42 41z m-916 334a42 42 0 0 1 41 41v84a125 125 0 0 0 125 125h84a42 42 0 0 1 0 83h-84a209 209 0 0 1-208-208v-84a42 42 0 0 1 42-41z m250-584h-84a125 125 0 0 0-125 125v84a42 42 0 0 1-83 0v-84a209 209 0 0 1 208-208h84a42 42 0 0 1 0 83z m500 917h-84a42 42 0 0 1 0-83h84a125 125 0 0 0 125-125v-84a42 42 0 0 1 83 0v84a209 209 0 0 1-208 208z m-292-458a167 167 0 1 1-167 166 167 167 0 0 1 167-166z m0 250a83 83 0 1 0-83-84 83 83 0 0 0 83 84z m250-625a42 42 0 0 1 42 41 250 250 0 0 1-250 250h-84a250 250 0 0 1-250-250 42 42 0 0 1 84 0 167 167 0 0 0 166 167h84a167 167 0 0 0 166-167 42 42 0 0 1 42-41z" horiz-adv-x="1000" />

<glyph glyph-name="fi-rr-money" unicode="&#xe8ba;" d="M792 17h-584a209 209 0 0 0-208 208v250a209 209 0 0 0 208 208h584a209 209 0 0 0 208-208v-250a209 209 0 0 0-208-208z m-584 583a125 125 0 0 1-125-125v-250a125 125 0 0 1 125-125h584a125 125 0 0 1 125 125v250a125 125 0 0 1-125 125z m292-417a167 167 0 1 0 167 167 167 167 0 0 0-167-167z m0 250a83 83 0 1 1 83-83 83 83 0 0 1-83 83z m-292 84a42 42 0 1 1 42-42 42 42 0 0 1-42 42z m542-42a42 42 0 1 1 42 42 42 42 0 0 1-42-42z m-542-208a42 42 0 1 1 42-42 42 42 0 0 1-42 42z m542-42a42 42 0 1 1 42 42 42 42 0 0 1-42-42z" horiz-adv-x="1000" />

<glyph glyph-name="fi-rr-mouse" unicode="&#xe8bb;" d="M542 725v83a42 42 0 0 1-84 0v-83a292 292 0 0 1-291-292v-250a333 333 0 0 1 666 0v250a292 292 0 0 1-291 292z m208-542a250 250 0 0 0-500 0v250a209 209 0 0 0 208 209h84a209 209 0 0 0 208-209z m-250 375a42 42 0 0 1-42-41v-84a42 42 0 0 1 84 0v84a42 42 0 0 1-42 41z" horiz-adv-x="1000" />

<glyph glyph-name="fi-rr-music" unicode="&#xe8bc;" d="M792 808h-250a209 209 0 0 1-209-208v-334a206 206 0 0 1-125 42 208 208 0 1 1 209-208v500a125 125 0 0 0 125 125h250a125 125 0 0 0 125-125v-334a206 206 0 0 1-125 42 208 208 0 1 1 208-208v500a209 209 0 0 1-208 208z m-584-833a125 125 0 1 0 125 125 125 125 0 0 0-125-125z m584 0a125 125 0 1 0 125 125 125 125 0 0 0-125-125z" horiz-adv-x="1000" />

<glyph glyph-name="fi-rr-music-alt" unicode="&#xe8bd;" d="M940 812a166 166 0 0 1-137 35l-383-72a208 208 0 0 1-170-204v-411a165 165 0 0 1-83 23 167 167 0 1 1 166-166v380a83 83 0 0 0 68 82l466 87a42 42 0 0 0 50-41v-240a165 165 0 0 1-84 23 167 167 0 1 1 167-166v541a166 166 0 0 1-60 129z m-773-879a83 83 0 1 0 83 84 83 83 0 0 0-83-84z m685 715l-466-87a167 167 0 0 1-53-20v30a125 125 0 0 0 102 123l383 71a83 83 0 0 0 99-82v-41a123 123 0 0 1-65 6z m-19-590a83 83 0 1 0 84 84 83 83 0 0 0-84-84z" horiz-adv-x="1000" />

<glyph glyph-name="fi-rr-network" unicode="&#xe8be;" d="M958 17h-341a125 125 0 0 1-75 75v175h250a125 125 0 0 1 83 217v199a167 167 0 0 1-167 167h-416a167 167 0 0 1-167-167v-199a125 125 0 0 1 83-217h250v-175a125 125 0 0 1-75-75h-341a42 42 0 0 1 0-84h341a124 124 0 0 1 234 0h341a42 42 0 0 1 0 84z m-750 666a83 83 0 0 0 84 84h416a83 83 0 0 0 84-84v-166h-150a83 83 0 0 1-59-25l-17-17h-132l-17 17a83 83 0 0 1-59 25h-150z m-41-291a42 42 0 0 0 41 41h150l17-17a83 83 0 0 1 59-24h132a83 83 0 0 1 59 24l17 17h150a42 42 0 0 0 0-83h-584a42 42 0 0 0-41 42z m333-459a42 42 0 1 0 42 42 42 42 0 0 0-42-42z" horiz-adv-x="1000" />

<glyph glyph-name="fi-rr-network-cloud" unicode="&#xe8bf;" d="M958 17h-341a125 125 0 0 1-75 75v174c56 0 105 0 129 1a217 217 0 0 1 44 5 206 206 0 0 1 154 154 209 209 0 0 1-148 250l-7 2c-13 3-19 4-25 18a250 250 0 0 1-473-36 265 265 0 0 1-3-114 146 146 0 0 1 19-274 154 154 0 0 1 35-5c27-1 105-1 187-1h4v-174a125 125 0 0 1-75-75h-341a42 42 0 0 1 0-84h341a124 124 0 0 1 234 0h341a42 42 0 0 1 0 84z m-689 333a71 71 0 0 0-16 2 61 61 0 0 0-42 43 63 63 0 0 0 35 75 84 84 0 0 1 49 96 167 167 0 0 0 138 199 175 175 0 0 0 25 2 167 167 0 0 0 155-103v0a110 110 0 0 1 86-68 126 126 0 0 0 89-151 124 124 0 0 0-91-91 130 130 0 0 0-28-4c-29 0-94-1-164-1a40 40 0 0 1-5 1 40 40 0 0 1-5-1c-94 0-194 0-226 1z m231-417a42 42 0 1 0 42 42 42 42 0 0 0-42-42z" horiz-adv-x="1000" />

<glyph glyph-name="fi-rr-notebook" unicode="&#xe8c0;" d="M792 724c0 0 0 1 0 1v83a42 42 0 0 1-84 0v-45a208 208 0 0 1-41 4h-42v41a42 42 0 0 1-83 0v-41h-84v41a42 42 0 0 1-83 0v-41h-42a208 208 0 0 1-41-4v45a42 42 0 0 1-84 0v-83c0 0 0-1 0-1a208 208 0 0 1-83-166v-500a209 209 0 0 1 208-208h334a209 209 0 0 1 208 208v500a208 208 0 0 1-83 166z m0-666a125 125 0 0 0-125-125h-334a125 125 0 0 0-125 125v500a125 125 0 0 0 125 125h334a125 125 0 0 0 125-125z m-84 459a42 42 0 0 0-41-42h-334a42 42 0 0 0 0 83h334a42 42 0 0 0 41-41z m0-167a42 42 0 0 0-41-42h-334a42 42 0 0 0 0 84h334a42 42 0 0 0 41-42z m-166-167a42 42 0 0 0-42-41h-167a42 42 0 0 0 0 83h167a42 42 0 0 0 42-42z" horiz-adv-x="1000" />

<glyph glyph-name="fi-rr-layout-fluid" unicode="&#xe8c1;" d="M83 392h459a83 83 0 0 1 83 83v292a83 83 0 0 1-83 83h-459a83 83 0 0 1-83-83v-292a83 83 0 0 1 83-83z m0 375h459v-292h-459z m834 83h-125a83 83 0 0 1-84-83v-292a83 83 0 0 1 84-83h125a83 83 0 0 1 83 83v292a83 83 0 0 1-83 83z m0-375h-125v292h125z m-709-167h-125a83 83 0 0 1-83-83v-292a83 83 0 0 1 83-83h125a83 83 0 0 1 84 83v292a83 83 0 0 1-84 83z m0-375h-125v292h125z m709 375h-459a83 83 0 0 1-83-83v-292a83 83 0 0 1 83-83h459a83 83 0 0 1 83 83v292a83 83 0 0 1-83 83z m0-375h-459v292h459z" horiz-adv-x="1000" />

<glyph glyph-name="fi-rr-letter-case" unicode="&#xe8c2;" d="M308 619a43 43 0 0 1-74 0l-229-459a42 42 0 1 1 74-37l72 144h240l72-144a42 42 0 1 1 74 37z m-115-269l78 157 78-157z m765 167a42 42 0 0 1-41-42v-1a206 206 0 0 1-125 43 208 208 0 0 1 0-417 206 206 0 0 1 125 43v-1a42 42 0 0 1 83 0v333a42 42 0 0 1-42 42z m-166-334a125 125 0 1 0 125 125 125 125 0 0 0-125-125z" horiz-adv-x="1000" />

<glyph glyph-name="fi-rr-life-ring" unicode="&#xe8c3;" d="M882 28a498 498 0 0 1 0 645l35 35a42 42 0 0 1-59 59l-35-35a498 498 0 0 1-646 0l-35 35a42 42 0 0 1-59-59l36-35a498 498 0 0 1 0-646l-36-35a42 42 0 1 1 59-59l36 35a498 498 0 0 1 645 0l35-35a42 42 0 0 1 59 59z m35 322a415 415 0 0 0-95-263l-148 148a207 207 0 0 1 0 230l148 149a415 415 0 0 0 95-264z m-542 0a125 125 0 1 0 125-125 125 125 0 0 0-125 125z m125 417a415 415 0 0 0 264-95l-149-148a207 207 0 0 1-230 0l-148 148a415 415 0 0 0 263 95z m-417-417a415 415 0 0 0 95 264l148-149a207 207 0 0 1 0-230l-148-148a415 415 0 0 0-95 263z m417-417a415 415 0 0 0-263 95l148 148a207 207 0 0 1 230 0l149-148a415 415 0 0 0-264-95z" horiz-adv-x="1000" />

<glyph glyph-name="fi-rr-line-width" unicode="&#xe8c4;" d="M896-150h-792a104 104 0 0 0-104 104h0a104 104 0 0 0 104 104h792a104 104 0 0 0 104-104h0a104 104 0 0 0-104-104z m104 417a83 83 0 0 1-83 83h-834a83 83 0 0 1 0-167h834a83 83 0 0 1 83 84z m0 271h0a63 63 0 0 1-62 62h-875a63 63 0 0 1-63-62h0a63 63 0 0 1 63-63h875a63 63 0 0 1 62 63z m0 229a42 42 0 0 1-42 41h-916a42 42 0 0 1 0-83h916a42 42 0 0 1 42 42z" horiz-adv-x="1000" />

</font>
</defs>
</svg>
