<svg xmlns="http://www.w3.org/2000/svg" width="207" height="66" viewBox="0 0 207 66"><g transform="translate(17312 21265)"><path d="M56,66H10A10.011,10.011,0,0,1,0,56V10A10.011,10.011,0,0,1,10,0H56A10.011,10.011,0,0,1,66,10V56A10.011,10.011,0,0,1,56,66ZM29.187,42.814h0c2.456,2.322,3.219,5.483,3.776,7.791l0,.007a16.018,16.018,0,0,0,.608,2.131.885.885,0,0,0,.824.553.8.8,0,0,0,.146-.013l4.026-.67a.888.888,0,0,0,.708-1.125,9.379,9.379,0,0,1-.356-2.409c.255.085.522.163.8.232a10.822,10.822,0,0,0,2.639.332,9.067,9.067,0,0,0,3.48-.661,5.826,5.826,0,0,0,3.626-3.9,5.094,5.094,0,0,0,.126-.727c1.979-.274,3.577-1.557,4.749-3.814.008-.016.015-.032.022-.049a16.93,16.93,0,0,0,1.211-4.655c.326-3.084-.471-5.551-2.3-7.136a.892.892,0,0,0,.064-.181,4.015,4.015,0,0,0-1.362-4.2c-.224-1.822-2.106-2.763-2.905-3.083a5.272,5.272,0,0,0-1.687-3.6,7.773,7.773,0,0,0-5.111-1.678h-.035a4.333,4.333,0,0,0-3.859-1.831,7.163,7.163,0,0,0-1.288.116,20.257,20.257,0,0,0-2.615-.706.89.89,0,0,0-1.045.7.89.89,0,0,0,.7,1.046,18.551,18.551,0,0,1,2.6.719.88.88,0,0,0,.3.051.9.9,0,0,0,.2-.023,6.043,6.043,0,0,1,1.218-.126,2.313,2.313,0,0,1,2.392,1.264.893.893,0,0,0,.84.592c.028,0,.056,0,.083,0,0,0,.195-.017.5-.017a6.03,6.03,0,0,1,3.923,1.22,3.353,3.353,0,0,1,1.049,2,4.589,4.589,0,0,0-4.046,2.408.889.889,0,1,0,1.588.8,2.944,2.944,0,0,1,2.752-1.442,4.126,4.126,0,0,1,.477.026c.381.125,2.279.811,2.2,2a.89.89,0,0,0,.481.849,2.1,2.1,0,0,1,.592.553,2.239,2.239,0,0,1,.353,1.789l-.06.079a4,4,0,0,0-3.741,3.589.89.89,0,1,0,1.769.2,2.263,2.263,0,0,1,2.181-2.015c3.928,2.881,1.087,9.668.964,9.956-.967,1.848-2.175,2.789-3.694,2.875a13.114,13.114,0,0,0-5.333-2.467.889.889,0,0,0-1.073.658.889.889,0,0,0,.658,1.072,11.636,11.636,0,0,1,4.533,2.042,3.4,3.4,0,0,1-.1.72c-.484,1.925-2.642,3.218-5.369,3.218a9.089,9.089,0,0,1-2.216-.28,9.185,9.185,0,0,1-1.692-.607.89.89,0,0,0-1.268.725,12.083,12.083,0,0,0,.147,3.31L35,51.4c-.1-.346-.193-.739-.308-1.217a17.942,17.942,0,0,0-3.493-7.84,34.389,34.389,0,0,1,5.295-.883.89.89,0,0,0-.072-1.776q-.037,0-.074,0A37.777,37.777,0,0,0,29.3,41.006a22.316,22.316,0,0,1-2.948.205c-.6,0-.973-.028-1.074-.037-3.856-.58-4.933-2.911-4.683-4.732a.89.89,0,0,0-1.093-.986l-.644.158c-.15-.007-3.689-.2-5.2-1.965a2.9,2.9,0,0,1-.643-2.364.894.894,0,0,0-.468-.9,1.113,1.113,0,0,1-.475-.633,2,2,0,0,1,.5-1.448.89.89,0,0,0,.116-.83A5.138,5.138,0,0,1,12.773,24a3.844,3.844,0,0,1,2.375-1.916.881.881,0,0,0,.6-.766,2.713,2.713,0,0,1,.936-1.752,2.413,2.413,0,0,1,1.473-.425,4.962,4.962,0,0,1,.961.1.889.889,0,0,0,1.053-.732c0-.019.41-1.871,3.873-1.937.535.731,1.686,2.613.826,4.3a.89.89,0,1,0,1.586.808,4.611,4.611,0,0,0,.5-1.871A3.663,3.663,0,0,1,28.29,19.5a1.7,1.7,0,0,1,.486.066,1.5,1.5,0,0,1,.913.86.89.89,0,0,0,1.6-.779,3.269,3.269,0,0,0-2.006-1.787,3.5,3.5,0,0,0-1-.14,4.907,4.907,0,0,0-1.564.276A7.9,7.9,0,0,0,25.8,16a11.745,11.745,0,0,1,1.681-.578.89.89,0,0,0-.227-1.75.9.9,0,0,0-.226.029,12.127,12.127,0,0,0-2.8,1.088c-3.644,0-5.023,1.625-5.521,2.594-.191-.018-.382-.027-.568-.027a4.123,4.123,0,0,0-2.549.8,4.3,4.3,0,0,0-1.522,2.434,5.375,5.375,0,0,0-2.909,2.644,6.612,6.612,0,0,0-.287,4.406,3.306,3.306,0,0,0-.542,2.523,2.78,2.78,0,0,0,.868,1.439,4.544,4.544,0,0,0,1.1,3.211c1.916,2.23,5.743,2.543,6.491,2.583.229,2.928,2.563,5,6.244,5.545l.04.005c.083.008.535.049,1.276.049a23.654,23.654,0,0,0,2.829-.177Zm10.79-3.183a.877.877,0,0,0-.228.03.888.888,0,0,0,.229,1.747.884.884,0,0,0,.608-.238.889.889,0,0,0-.61-1.539Zm5.452-6.214a.891.891,0,0,0-.848.623.881.881,0,0,0,.06.677,4.817,4.817,0,0,0,2.345,2.1,4.151,4.151,0,0,0,1.157,4.354.877.877,0,0,0,.57.207.89.89,0,0,0,.571-1.572,2.587,2.587,0,0,1-.512-2.778,5.425,5.425,0,0,0,2.465-1.044A.89.89,0,1,0,50.2,34.531a3.386,3.386,0,0,1-1.911.741,1.92,1.92,0,0,1-.434-.049,2.884,2.884,0,0,1-1.643-1.333A.888.888,0,0,0,45.429,33.417Zm-15.948,2.8a.89.89,0,0,0-.34,1.713,6.187,6.187,0,0,0,2.2.4c.067,0,.138,0,.224,0a4.956,4.956,0,0,0,4.248-2.62.891.891,0,0,0-.769-1.337.892.892,0,0,0-.769.442,3.22,3.22,0,0,1-2.722,1.733c-.069,0-.139.005-.209.005a4.563,4.563,0,0,1-1.528-.268A.885.885,0,0,0,29.481,36.212ZM19.68,34.3h0a2.86,2.86,0,0,1,1.858.573,2.708,2.708,0,0,1,.737,2.21.893.893,0,0,0,.869.911h.021a.9.9,0,0,0,.889-.869,4.833,4.833,0,0,0-.758-2.94,4.347,4.347,0,0,0,1.75-3.918.892.892,0,0,0-.882-.777.9.9,0,0,0-.112.007.892.892,0,0,0-.771.995A2.842,2.842,0,0,1,21.914,33a5.17,5.17,0,0,0-2.254-.484,5.317,5.317,0,0,0-.844.062.89.89,0,0,0,.306,1.753A3.709,3.709,0,0,1,19.68,34.3Zm19.761-8.669a.891.891,0,0,0-.456,1.655,4.872,4.872,0,0,1,1.489,1.535,3.952,3.952,0,0,1-.21,4.2.89.89,0,1,0,1.544.884,5.624,5.624,0,0,0,.151-6.062,6.671,6.671,0,0,0-2.069-2.085A.89.89,0,0,0,39.441,25.629Zm-7.6-.591a.9.9,0,0,0-.162.015.888.888,0,0,0-.715,1.034,6.887,6.887,0,0,0,1.092,2.481,5.962,5.962,0,0,0,.751.874c-.162.926-1.576,1.421-1.59,1.426a.89.89,0,0,0,.572,1.686,4.438,4.438,0,0,0,2.546-2.078,6.1,6.1,0,0,0,2.527.515l.194,0a.889.889,0,0,0,.866-.913.894.894,0,0,0-.888-.867h-.023l-.139,0a3.912,3.912,0,0,1-3.36-1.665,4.968,4.968,0,0,1-.8-1.78A.888.888,0,0,0,31.839,25.038Zm-14.265-2.5a.9.9,0,0,0-.234.031.89.89,0,0,0-.625,1.092,2.9,2.9,0,0,1-.019,1.906l-.016.039a2.007,2.007,0,0,1-.429.626,2.857,2.857,0,0,1-1.108.682.89.89,0,0,0,.235,1.748.864.864,0,0,0,.232-.031,4.64,4.64,0,0,0,2.037-1.287,3.37,3.37,0,0,0,2.056.671,4.1,4.1,0,0,0,.653-.053,5.168,5.168,0,0,0,1.846-.691.89.89,0,1,0-.968-1.493,3.507,3.507,0,0,1-1.161.427,2.392,2.392,0,0,1-.379.032,1.609,1.609,0,0,1-1.185-.488,4.921,4.921,0,0,0-.076-2.553A.891.891,0,0,0,17.574,22.534Zm17.795-3.272a2.368,2.368,0,0,1,1.223.3,2.418,2.418,0,0,1,1.032,1.618.886.886,0,0,0,.866.686.938.938,0,0,0,.2-.023.889.889,0,0,0,.661-1.07,3.9,3.9,0,0,0-3.993-3.288,4.782,4.782,0,0,0-1.165.136.89.89,0,0,0,.472,1.716A3.059,3.059,0,0,1,35.369,19.261ZM30.777,13.2a.88.88,0,0,0-.492.147.89.89,0,0,0,.494,1.63h.041a.889.889,0,0,0,.522-1.576A.89.89,0,0,0,30.777,13.2Z" transform="translate(-17312 -21265)" fill="#e42c64"/><text transform="translate(-17228 -21217)" fill="#373737" font-size="40" font-family="Montserrat-SemiBold, Montserrat" font-weight="600"><tspan x="0" y="0">ezy-ui</tspan></text></g></svg>